<?xml version="1.0" encoding="UTF-8" standalone="no"?>
<svg
   xmlns:dc="http://purl.org/dc/elements/1.1/"
   xmlns:cc="http://creativecommons.org/ns#"
   xmlns:rdf="http://www.w3.org/1999/02/22-rdf-syntax-ns#"
   xmlns:svg="http://www.w3.org/2000/svg"
   xmlns="http://www.w3.org/2000/svg"
   xmlns:sodipodi="http://sodipodi.sourceforge.net/DTD/sodipodi-0.dtd"
   xmlns:inkscape="http://www.inkscape.org/namespaces/inkscape"
   sodipodi:docname="banco_do_brasil 2.svg"
   inkscape:version="1.0 (6e3e5246a0, 2020-05-07)"
   id="svg8"
   version="1.1"
   viewBox="0 0 200 200"
   height="200mm"
   width="200mm">
  <defs
     id="defs2" />
  <sodipodi:namedview
     inkscape:window-maximized="1"
     inkscape:window-y="28"
     inkscape:window-x="0"
     inkscape:window-height="1024"
     inkscape:window-width="1920"
     showgrid="false"
     inkscape:document-rotation="0"
     inkscape:current-layer="layer1"
     inkscape:document-units="mm"
     inkscape:cy="560"
     inkscape:cx="400"
     inkscape:zoom="0.35"
     inkscape:pageshadow="2"
     inkscape:pageopacity="0.0"
     borderopacity="1.0"
     bordercolor="#666666"
     pagecolor="#ffffff"
     id="base" />
  <metadata
     id="metadata5">
    <rdf:RDF>
      <cc:Work
         rdf:about="">
        <dc:format>image/svg+xml</dc:format>
        <dc:type
           rdf:resource="http://purl.org/dc/dcmitype/StillImage" />
        <dc:title></dc:title>
      </cc:Work>
    </rdf:RDF>
  </metadata>
  <g
     id="layer1"
     inkscape:groupmode="layer"
     inkscape:label="Layer 1">
    <circle
       r="100"
       cy="100"
       cx="100"
       id="path833"
       style="fill:#fff000;fill-opacity:1;stroke-width:0.854044" />
    <g
       transform="matrix(1.196,0,0,1.294335,-3.339591,-27.124014)"
       id="g851">
      <polygon
         points="97.2,332.9 286.4,206.9 171.3,130.1 117.8,165.7 158.9,193.1 60.2,258.9 -22,204.1 175.4,72.5 372.7,204.1 138.4,360.3 "
         class="st1"
         id="XMLID_6_"
         transform="matrix(0.26458333,0,0,0.26458333,40.539837,27.618721)"
         style="fill:#0058a6" />
      <polygon
         points="253.5,206.9 64.3,332.9 179.5,409.7 232.9,374 191.8,346.6 290.5,280.9 372.7,335.7 175.3,467.2 -22,335.7 212.4,179.5 "
         class="st1"
         id="XMLID_5_"
         transform="matrix(0.26458333,0,0,0.26458333,40.539837,27.618721)"
         style="fill:#0058a6" />
      <polygon
         points="290.5,127.4 372.7,72.5 372.7,127.4 331.6,154.8 "
         class="st1"
         id="XMLID_4_"
         transform="matrix(0.26458333,0,0,0.26458333,40.539837,27.618721)"
         style="fill:#0058a6" />
      <polygon
         points="60.2,412.4 -22,467.3 -22,412.4 19.1,385 "
         class="st1"
         id="XMLID_3_"
         transform="matrix(0.26458333,0,0,0.26458333,40.539837,27.618721)"
         style="fill:#0058a6" />
    </g>
  </g>
</svg>
