<?xml version="1.0" encoding="UTF-8" standalone="no"?>
<svg
   xmlns:dc="http://purl.org/dc/elements/1.1/"
   xmlns:cc="http://creativecommons.org/ns#"
   xmlns:rdf="http://www.w3.org/1999/02/22-rdf-syntax-ns#"
   xmlns:svg="http://www.w3.org/2000/svg"
   xmlns="http://www.w3.org/2000/svg"
   xmlns:sodipodi="http://sodipodi.sourceforge.net/DTD/sodipodi-0.dtd"
   xmlns:inkscape="http://www.inkscape.org/namespaces/inkscape"
   width="200mm"
   height="200mm"
   viewBox="0 0 200 200"
   version="1.1"
   id="svg8"
   inkscape:version="1.0 (6e3e5246a0, 2020-05-07)"
   sodipodi:docname="banco_safra.svg">
  <defs
     id="defs2" />
  <sodipodi:namedview
     id="base"
     pagecolor="#ffffff"
     bordercolor="#666666"
     borderopacity="1.0"
     inkscape:pageopacity="0.0"
     inkscape:pageshadow="2"
     inkscape:zoom="0.49497475"
     inkscape:cx="444.62154"
     inkscape:cy="581.28147"
     inkscape:document-units="mm"
     inkscape:current-layer="layer1"
     inkscape:document-rotation="0"
     showgrid="false"
     inkscape:window-width="1920"
     inkscape:window-height="1024"
     inkscape:window-x="0"
     inkscape:window-y="28"
     inkscape:window-maximized="1" />
  <metadata
     id="metadata5">
    <rdf:RDF>
      <cc:Work
         rdf:about="">
        <dc:format>image/svg+xml</dc:format>
        <dc:type
           rdf:resource="http://purl.org/dc/dcmitype/StillImage" />
        <dc:title />
      </cc:Work>
    </rdf:RDF>
  </metadata>
  <g
     inkscape:label="Layer 1"
     inkscape:groupmode="layer"
     id="layer1">
    <circle
       style="fill:#151e45;fill-opacity:1;stroke-width:0.854044"
       id="path833"
       cx="100"
       cy="100"
       r="100" />
    <g
       transform="matrix(2.3397507,0,0,2.3397507,-132.50421,-63.770629)"
       id="g870">
      <path
         d="m 123.56393,77.30121 c -0.38594,3.479266 -2.00752,7.237122 -4.34141,9.796547 -1.21798,1.337726 -2.14805,2.577728 -6.44479,5.501367 C 107.1926,95.69246 102.24935,97.75396 99.371623,99.989811 96.492037,97.75396 91.550642,95.69215 85.96365,92.599124 81.66816,89.675485 80.738391,88.435483 79.518243,87.097757 77.18653,84.538332 75.56463,80.780786 75.1787,77.30121 c -0.471865,-4.489076 1.245587,-8.466887 4.08174,-11.216795 0.901227,-1.031526 0.299995,-1.545582 -0.128437,-2.363667 -0.769689,-1.461509 -0.945591,-2.103692 -2.235541,-4.638919 -0.687787,-1.35603 -1.03773,-2.350327 -0.857795,-3.223944 0.643734,-2.321786 3.093336,-3.211535 3.953613,-4.253299 0.151394,-0.185829 0.463799,-0.291929 0.557799,-0.473726 0.156048,-0.30589 0.04188,-0.644354 0.04188,-0.644354 -0.0019,-0.0074 -0.956139,-1.855195 -0.858105,-2.149607 0.197928,-0.593786 3.437695,-2.363667 6.101358,-3.437385 3.221462,-1.159652 4.97335,-1.631517 7.865034,-2.363667 C 97.265449,41.633999 99.371623,40 99.371623,40 c 0,0 2.105867,1.633999 5.671067,2.536157 2.89168,0.73184 4.64109,1.203705 7.86317,2.363668 2.66552,1.073717 5.90498,2.843908 6.10291,3.437384 0.098,0.294412 -0.85593,2.141851 -0.85997,2.149607 0,0 -0.11354,0.338464 0.0444,0.644354 0.0924,0.181797 0.40578,0.287897 0.55842,0.473727 0.85965,1.042073 3.30894,1.931822 3.95268,4.253298 0.17993,0.873617 -0.16939,1.867915 -0.85966,3.223944 -1.28809,2.535227 -1.46399,3.17741 -2.23368,4.638919 -0.42998,0.817775 -1.03183,1.332142 -0.12812,2.363667 2.83491,2.749288 4.55329,6.727409 4.08112,11.216485 z m -1.54776,-0.946212 c -0.0419,-3.653307 -1.28716,-6.961014 -3.95113,-9.582486 -1.5915,-1.461819 -0.90371,-1.777326 -0.3881,-2.749597 0.77403,-1.461509 0.64156,-1.453753 1.93368,-4.169225 0.58417,-1.227904 1.63183,-2.963349 1.2459,-4.125483 -0.47342,-1.029664 -2.82343,-2.611233 -2.96583,-2.705544 -0.78396,-0.523984 -1.32966,-0.901848 -1.88994,-1.418077 -0.27394,-0.451699 0.0444,-0.687787 0.0444,-0.687787 0,0 1.00392,-1.617866 0.85811,-1.891802 -0.77373,-1.459958 -8.12067,-3.867679 -12.20241,-4.81327 -1.96378,-0.453871 -5.329187,-2.319924 -5.329187,-2.319924 0,0 -3.367272,1.866053 -5.327326,2.319924 -4.083601,0.945591 -11.432097,3.353312 -12.203957,4.81327 -0.14612,0.273936 0.858105,1.891802 0.858105,1.891802 0,0 0.317989,0.236398 0.04405,0.687787 -0.55842,0.516229 -1.108153,0.893783 -1.891803,1.418077 -0.140535,0.094 -2.491793,1.67588 -2.96614,2.705544 -0.38531,1.162134 0.662348,2.897579 1.248068,4.125483 1.292122,2.715782 1.159652,2.707716 1.931823,4.169225 0.516228,0.972271 1.203705,1.287778 -0.38593,2.749597 -2.663663,2.621782 -3.90956,5.929179 -3.951131,9.582486 0.255942,3.867679 1.501529,7.090692 5.284824,11.128689 1.217976,1.339587 2.921467,2.751149 7.26101,5.071383 4.083601,2.105864 7.090692,3.351761 10.054661,5.543249 2.965833,-2.191488 6.059483,-3.437385 10.142773,-5.543249 4.33954,-2.320234 6.04303,-3.731486 7.26256,-5.071383 3.77926,-4.037997 5.02516,-7.26101 5.28296,-11.128689 z"
         id="path2"
         style="clip-rule:evenodd;fill:#c4ac6c;fill-opacity:1;fill-rule:evenodd;stroke-width:0.31;stroke-miterlimit:4;stroke-dasharray:none" />
      <g
         id="g864">
        <path
           style="clip-rule:evenodd;fill:#c4ac6c;fill-opacity:1;fill-rule:evenodd;stroke-width:0.31;stroke-miterlimit:4;stroke-dasharray:none"
           id="path4"
           d="m 118.83721,77.428716 c -0.38624,-0.38593 -1.45189,-0.07942 -1.58405,0.128436 -0.42781,-1.42366 -1.28002,-2.644118 -2.32334,-3.425906 0,0 -0.004,-0.267421 0.12565,-0.397719 0.24384,-0.129988 0.94559,-0.0425 1.50587,-0.299996 0.42781,-0.197928 0.51344,1.115599 1.67402,0.94373 0.82336,-0.121922 0.81777,-0.988093 0.34343,-0.901848 -0.14581,-0.04592 -0.33971,0.308062 -0.51375,0.344049 -0.60402,0.129987 -0.68779,-0.773722 -0.68779,-1.159652 0,-0.17187 0.34188,-1.252102 0.0838,-1.978358 -0.32172,-0.911465 -1.34797,-1.413423 -1.80339,-1.717452 -0.12844,-0.08593 -0.35553,-0.617674 -0.0859,-0.817775 0.64374,-0.471864 -0.60154,-0.902158 -0.81591,0.17187 -0.11789,0.592235 0.12192,0.749834 0.0856,1.076199 -0.0438,0.38624 -1.21115,1.175474 -0.2575,1.891803 0.51592,0.38593 0.67383,-0.247877 0.42999,-0.560282 -0.47187,-0.601852 1.67495,-1.504011 1.76181,0.773722 0.0335,0.946212 -1.52604,1.374023 -1.87009,1.504011 -2.62147,0 -4.74719,-2.511649 -4.74719,-5.607156 0,-2.395622 1.30391,-4.461465 3.09179,-5.26528 0.73184,-0.815603 3.73924,-0.685615 3.61174,-1.975255 -0.0903,-0.879822 -0.94653,-1.334003 -1.41994,-0.860277 -0.21406,0.429983 0.51592,0.474347 0.47341,0.902158 -0.0394,0.397719 -0.75386,0.503819 -1.24558,0.17187 -0.25036,-0.167837 -0.34405,-0.426261 -0.38779,-0.859657 -0.17187,-1.718072 3.26737,-2.963658 3.26737,-2.963658 0,0 -2.8377,-0.859657 -2.92364,-1.675881 -0.072,-0.685305 0.25812,-0.773722 0.55997,-0.387791 0.17808,0.229883 0.6881,-0.258425 0.0841,-0.815914 -0.47187,-0.301857 -1.16214,-0.03413 -1.37403,0.687787 -0.21406,0.730289 -2.87958,-2.493655 -3.22394,-3.437385 -0.16597,-0.457904 0.007,-1.473608 0.5578,-1.289639 0.38841,0.129987 0.30279,0.38593 0.17249,0.557799 -0.15419,0.208477 -0.018,0.57176 0.25966,0.601853 0.27828,0.03195 0.70796,-0.277659 0.73029,-0.815604 0.0419,-1.032146 -1.93337,-1.805868 -2.4496,-0.214061 -0.10827,0.329468 -0.38841,-0.129987 -0.60185,-0.301857 -0.4759,-0.381897 -3.43739,-3.909559 -7.391,-3.953613 -1.50959,-0.01613 -0.81777,0.361732 -1.54775,0.302168 -0.513749,-0.04436 -0.858108,-0.774032 -1.07403,-1.032147 -0.127506,0.214372 -0.5578,0.988093 -1.073717,1.032147 -0.729669,0.05956 -0.03599,-0.317989 -1.545893,-0.302168 -3.955164,0.04436 -6.9151,3.571716 -7.390998,3.953613 -0.215922,0.17187 -0.495753,0.631325 -0.601852,0.301857 -0.516229,-1.591496 -2.491484,-0.817775 -2.449603,0.214061 0.02203,0.537945 0.4517,0.847558 0.729669,0.815604 0.277969,-0.0304 0.413851,-0.393686 0.258425,-0.601853 -0.129988,-0.171869 -0.214061,-0.427812 0.171869,-0.557799 0.553766,-0.183969 0.726256,0.831735 0.557799,1.289639 -0.343738,0.94373 -3.007401,4.167674 -3.221462,3.437385 -0.21189,-0.721913 -0.902159,-0.989334 -1.375885,-0.687787 -0.601852,0.5578 -0.09214,1.046107 0.08593,0.815914 0.299995,-0.385931 0.629773,-0.297514 0.560281,0.387791 -0.08842,0.816224 -2.923949,1.675881 -2.923949,1.675881 0,0 1.393878,0.535772 2.363668,1.374023 0.523984,0.453871 0.961723,0.988093 0.902158,1.589945 -0.04188,0.433396 -0.135882,0.691821 -0.38624,0.859657 -0.493892,0.331949 -1.206187,0.22585 -1.245587,-0.171869 -0.04405,-0.427812 0.685616,-0.471865 0.471865,-0.902159 -0.471865,-0.473726 -1.32966,-0.01955 -1.417766,0.860277 -0.127816,1.28964 2.879585,1.159652 3.609564,1.975255 1.789736,0.803815 3.093336,2.869658 3.093336,5.26528 0,3.095818 -2.125718,5.607156 -4.74719,5.607156 -0.344048,-0.129987 -1.906383,-0.557799 -1.870086,-1.504011 0.08593,-2.277732 2.23368,-1.375884 1.761815,-0.773721 -0.243843,0.312404 -0.08594,0.946211 0.429983,0.560281 0.953657,-0.716329 -0.214061,-1.505873 -0.257804,-1.891803 -0.03599,-0.326055 0.203824,-0.483964 0.08594,-1.076199 -0.214061,-1.073717 -1.462129,-0.643734 -0.817775,-0.171869 0.271454,0.20041 0.04436,0.73184 -0.08407,0.817775 -0.456353,0.304028 -1.483536,0.806296 -1.805558,1.717451 -0.255942,0.726256 0.08594,1.806489 0.08594,1.978358 0,0.38593 -0.08594,1.28964 -0.687787,1.159652 -0.174352,-0.03599 -0.368247,-0.390274 -0.516229,-0.344049 -0.471864,-0.08593 -0.47931,0.780237 0.344359,0.901848 1.159652,0.17187 1.419628,-1.159652 1.719934,-1.029664 0.813742,0.347772 1.215183,0.255943 1.459027,0.38593 0.129988,0.129988 0.128436,0.397719 0.128436,0.397719 -1.046106,0.781788 -1.895835,2.002246 -2.323647,3.425907 -0.132159,-0.207857 -1.197811,-0.514367 -1.583741,-0.128437 -0.473726,0.430294 -0.325745,0.968238 -0.301857,1.162134 0.0425,0.341877 0.780237,0.427812 0.687787,-0.259976 -0.08593,-0.643734 0.773722,-0.427501 0.901849,0.215923 0.171869,0.988093 -0.094,1.38395 -0.04405,1.719933 0.431845,2.749598 2.399655,4.467049 4.70748,4.467049 0.383449,0 0.747663,-0.03599 1.097606,-0.117888 0.409508,-0.09648 0.641872,0.633806 0.986231,1.235659 0,0 -1.418076,0.557799 -1.245586,1.631827 0.171869,1.076199 1.159652,1.633999 1.88932,0.687787 0.299996,-0.38531 -0.214371,-0.429673 -0.77217,-0.429673 -0.423779,-0.299996 -0.381897,-0.817775 0.643734,-1.030285 1.246517,-0.257804 2.361806,2.405859 2.793651,3.52332 0.428432,1.116219 2.792099,4.211727 6.015423,3.479887 0.214061,-0.04809 2.147435,2.879585 2.147435,2.879585 0,0 1.935858,-2.927982 2.150228,-2.879585 3.22332,0.73184 5.58668,-2.363668 6.01542,-3.479887 0.42936,-1.117461 1.54713,-3.781124 2.79303,-3.52332 1.02625,0.21251 1.06782,0.730289 0.64436,1.030285 -0.5578,0 -1.07217,0.04436 -0.77218,0.429673 0.72812,0.946212 1.71777,0.388412 1.88964,-0.687787 0.17249,-1.074028 -1.2459,-1.631827 -1.2459,-1.631827 0.34405,-0.601853 0.57579,-1.332142 0.98623,-1.235659 0.35025,0.0819 0.71416,0.117888 1.09761,0.117888 2.30782,0 4.49186,-1.717451 4.61937,-4.597037 0.0164,-0.337844 -0.0875,-1.01167 0.0444,-1.589945 0.12782,-0.643734 0.9881,-0.859657 0.90185,-0.215923 -0.0921,0.688098 0.64373,0.601853 0.6881,0.259976 0.0208,-0.193896 0.17063,-0.732151 -0.30279,-1.162444 z M 98.813513,48.983115 c 0.386241,-0.560281 0.513746,-1.246207 0.599681,-0.90433 0.147981,0.590374 0.645906,0.860277 0.429983,1.032146 -0.329467,0.264009 -1.173612,0.07849 -1.029664,-0.127816 z m 0.513746,46.193117 -1.115598,-1.633379 1.115598,-1.545582 1.118081,1.545582 z M 116.81697,80.006754 c 0,2.231819 -1.7795,4.039548 -3.97316,4.039548 a 3.9219693,3.9219693 0 0 1 -2.55384,-0.942178 c -0.49172,-0.515608 -0.864,-1.337416 -0.864,-2.171633 0,-1.55551 1.164,-2.815678 2.49149,-2.815678 0.17249,0.121922 0.3881,-0.08593 0.6884,0.857795 0.3878,0.17249 0.42968,-0.143948 0.42968,-0.513746 0,-0.601853 -0.64374,-0.860277 -1.41746,-1.159652 -0.56804,-0.222127 -0.08,-1.437621 -0.94621,-1.505873 -0.5578,-0.04219 -0.77372,0.215923 -0.64373,0.601233 0.0859,0.335982 0.39182,0.02606 0.5578,0.129987 0.56028,0.344049 -0.22399,1.319733 -0.22399,1.319733 -0.88975,0.789854 -1.45189,1.903901 -1.45189,3.063553 0,0.737735 0.22988,1.386123 0.56028,2.019929 0.38189,0.47776 0.73184,0.923565 1.14197,1.187573 0,0 0.40144,0.962034 -0.62574,1.819829 -0.51623,0.429983 -1.03215,-0.129988 -2.75208,2.877724 -0.0875,0.157909 -0.3819,-0.462248 -1.02967,-0.686236 -0.43184,-0.258424 -1.71993,0 -1.80556,1.118081 -0.0803,1.029664 0.94622,0.516228 1.20371,-0.344049 0.32947,-0.215922 0.63225,0.175902 0.8581,0.600301 0.31179,0.585721 -0.34404,1.977738 -2.10369,3.095818 -1.59212,0.988093 -4.427337,0.515918 -4.3414,-1.375884 0.0642,-1.398222 1.97804,-1.719934 1.71807,-0.602473 -0.1545,0.675998 1.63338,0.774342 0.77527,-0.687788 -0.85965,-1.461509 -2.837081,-0.169387 -3.18144,0.687788 -0.343428,-0.857485 -2.319614,-2.149607 -3.178961,-0.687788 -0.860277,1.46213 0.92977,1.363786 0.773722,0.687788 -0.258424,-1.117461 1.655405,-0.795749 1.717762,0.602473 0.08593,1.891802 -2.749598,2.363667 -4.339543,1.375884 -1.761505,-1.11808 -2.417338,-2.509787 -2.105243,-3.095818 0.227711,-0.424089 0.527706,-0.816223 0.859656,-0.600301 0.257804,0.860277 1.284056,1.374023 1.201534,0.344049 -0.08376,-1.118081 -1.373403,-1.376195 -1.803387,-1.118081 -0.647767,0.223988 -0.942178,0.844145 -1.032146,0.686236 -1.717761,-3.008022 -2.233679,-2.447741 -2.749597,-2.877724 -1.027493,-0.858105 -0.625741,-1.819829 -0.625741,-1.819829 0.367937,-0.416022 0.801333,-0.623879 1.184161,-1.101638 a 4.609136,4.609136 0 0 0 0.515297,-2.105864 c 0,-1.159962 -0.561832,-2.273699 -1.44941,-3.063553 0,0 -0.78427,-0.975684 -0.22616,-1.319733 0.168147,-0.103928 0.471865,0.205995 0.560281,-0.129987 0.127506,-0.38531 0.07787,-0.497304 -0.646216,-0.557179 -1.029664,-0.08625 -0.375382,1.239382 -0.943729,1.461509 -0.773722,0.299375 -1.419628,0.557799 -1.419628,1.159652 0,0.369798 0.04405,0.685925 0.429984,0.513746 0.301857,-0.94373 0.516228,-0.735873 0.687787,-0.857795 1.32966,0 2.491794,1.260168 2.491794,2.815677 0,0.834218 -0.370419,1.656026 -0.861829,2.171633 a 3.9275535,3.9275535 0 0 1 -2.55384,0.942179 c -2.19366,0 -3.973468,-1.80773 -3.973468,-4.039548 -0.259975,-3.393332 1.803386,-5.457314 3.68371,-6.496905 2.113309,-0.905882 3.621353,-3.263965 3.621353,-6.029074 0,-2.945665 -1.548064,-5.219365 -4.041719,-6.250891 -0.669794,-0.448287 -0.337844,-0.548492 -0.127816,-1.032146 0.07197,-0.165975 0.06391,-0.4123 0.08593,-0.687787 0.06391,-0.801953 -0.01613,-0.421917 -0.08593,-0.816224 -0.02451,-0.131539 -0.214061,-0.275797 -0.17249,-0.687787 0.17249,-1.631827 1.893974,-0.931631 2.019929,-0.299996 0.129988,0.644355 -0.0999,0.579826 -0.257804,0.730289 -0.730289,-0.258424 -0.474346,0.210028 -0.430293,0.343429 0.129987,0.38593 0.560281,0.522122 1.075579,0.172489 0.428432,-0.129987 0.604334,-0.766276 0.730289,-0.730289 0.823669,0.236398 1.203705,-0.687787 0.859656,-0.73184 -0.343738,-0.04188 -0.773722,0.388412 -1.073717,0 -1.034008,-1.325627 -2.745565,-1.253963 -3.051455,-0.687787 -0.560281,1.031836 -1.032146,0.473416 -1.032146,0.473416 0,0 -0.77124,-0.555628 -0.687787,-0.601232 1.332142,-0.73029 1.935855,-1.148174 3.997666,-3.179581 0.902158,-1.032147 3.073481,-3.923831 3.651756,-4.383597 1.891803,-1.5037 5.456693,-4.125172 7.520986,-2.491483 0.821808,0.6518 0.513746,1.373402 0.21344,1.633378 -0.343738,0.341877 -0.579826,-0.840112 -0.729669,-0.775583 -0.474346,0.0878 0.257804,0.859656 -0.08593,1.204015 -0.319851,0.34529 -0.898126,-0.07259 -0.860277,-0.428432 0.08594,-0.817775 -1.803386,0.730289 0.471865,1.374023 0.486446,0.135882 0.474346,-0.171869 0.817775,-0.129988 0.344048,0.04405 0.77217,0.474037 1.374023,0.388102 0.601853,0.08593 1.032146,-0.344048 1.376506,-0.388102 0.34342,-0.04188 0.33132,0.26556 0.8156,0.129988 2.27773,-0.643734 0.38593,-2.191798 0.47403,-1.374023 0.0378,0.355527 -0.54042,0.773722 -0.85996,0.428432 -0.34343,-0.344359 0.38593,-1.116219 -0.0859,-1.204015 -0.15201,-0.06453 -0.38593,1.11746 -0.72967,0.775583 -0.30247,-0.259976 -0.608359,-0.981578 0.21345,-1.633378 2.06181,-1.633999 5.62918,0.987783 7.52098,2.491483 0.57797,0.459456 2.74929,3.35145 3.65176,4.383597 2.05933,2.031407 2.4496,2.319614 3.99766,3.179581 0.0819,0.04591 -0.73184,0.643734 -0.73184,0.643734 0,0 -0.38593,0.301857 -0.98809,-0.515918 -0.3819,-0.51778 -2.02024,-0.63815 -3.05145,0.687787 -0.30031,0.388412 -0.73029,-0.04188 -1.07403,0 -0.34405,0.04405 0.036,0.968238 0.85965,0.73184 0.12596,-0.03599 0.3,0.600302 0.73029,0.730289 0.5153,0.349633 0.94559,0.213441 1.07558,-0.172489 0.0444,-0.133401 0.30031,-0.601853 -0.43184,-0.343429 -0.15636,-0.150152 -0.38593,-0.08593 -0.25595,-0.730289 0.12565,-0.631635 1.84744,-1.331521 2.01993,0.299996 0.0419,0.41199 -0.15015,0.555938 -0.17249,0.687787 -0.0698,0.394307 -0.14953,0.01396 -0.0875,0.816224 0.0239,0.275797 0.014,0.521812 0.0875,0.687787 0.20786,0.483654 0.54229,0.583859 -0.12998,1.032146 -2.49118,1.031526 -4.03955,3.305226 -4.03955,6.250891 0,2.765419 1.50587,5.123192 3.62166,6.029074 1.87909,1.039591 3.94028,3.103884 3.68278,6.497215 z" />
        <path
           sodipodi:nodetypes="scccccccccccccscccccccccscccscsccccsccccscsssccccccccccssccccccsscscccccccccccsccccccccccccccccccccccccccccccccscsccsscccccccc"
           style="clip-rule:evenodd;fill:#c4ac6c;fill-opacity:1;fill-rule:evenodd;stroke-width:0.31;stroke-miterlimit:4;stroke-dasharray:none"
           id="path6"
           d="m 107.11256,69.076305 c -0.80971,-1.587464 -2.18373,-2.687551 -3.7017,-3.119396 l 0.0856,-0.299995 c 0.81623,-1.203706 1.16214,-2.797684 1.20402,-4.299213 0,-0.285725 -0.0261,-0.559661 -0.076,-0.817775 0.17249,-0.127816 0.78024,0.219955 1.27816,0.947762 0.5578,0.815604 1.20371,0.129988 0.64374,-0.301857 -0.43216,-0.331949 -0.85811,-1.931822 -0.90216,-2.233679 -0.0419,-0.302478 -0.0419,-1.418077 0.0444,-1.589636 0.19204,-0.384379 0,-1.462129 -0.51623,-0.430293 -0.51591,1.031836 -1.24775,0.773722 -1.24775,0.773722 -0.38593,-0.815604 -1.42304,-2.469768 -3.26335,-2.921467 0.25595,-0.646216 1.19967,-1.509906 2.57153,-2.065844 0.70981,-0.285414 1.27381,-0.477759 1.85395,-0.513746 0.21406,-0.38593 0.25842,-0.644355 0.0856,-0.644355 -1.07557,0 -2.60533,0.493892 -3.25744,0.794198 -0.54198,0.251909 -1.26576,0.43991 -2.067399,0.510333 -0.646216,0.05584 -1.256135,0.02947 -1.771432,-0.06453 -0.89006,-0.15977 -1.92748,-0.379726 -2.829948,-0.679721 -0.946212,-0.646216 -1.031836,0.341877 -0.871756,0.471864 0.567727,0.164114 1.186022,0.417885 1.785393,0.751696 0.560281,0.422537 0.950244,0.908363 1.278161,1.354168 -0.892231,0.325435 -1.737927,0.969789 -2.105864,1.589946 -0.369798,-0.608368 -1.209599,-1.162134 -1.847749,-1.162134 -1.570091,-0.170008 -2.363668,0.885716 -2.363668,1.869776 0,0.478069 0.227401,0.909914 0.59782,1.229765 0,0 0.561832,0.295962 0.93163,-0.004 0.142087,-0.117889 0.01799,-0.31799 0.01799,-0.471865 -0.343428,-0.431845 -0.221507,-1.119632 0.516228,-1.119632 0.733702,0 1.331521,0.689648 1.331521,1.461509 -1.591496,0.83825 -2.879585,2.347845 -2.879585,4.019693 0,1.765847 1.074338,3.329423 3.223634,4.103455 v 8.592842 c 0,0 0.08407,0.945591 -0.903709,-0.258424 -0.25191,-0.307442 -0.537945,-0.459766 -0.859967,-0.94373 -1.159652,-1.84775 -2.031718,-3.481748 -2.319614,-3.481748 -0.385931,0 -0.729669,0.0425 -0.300306,0.730289 0.394257,0.632061 0.602316,1.362475 0.600301,2.107415 0,0.685925 0.143948,1.527899 -1.332142,2.705544 -0.643734,0.516228 -0.04188,1.032146 0.516229,0.516228 0.560281,-0.516228 1.076199,-0.429983 1.246207,-0.429983 0.475277,0 1.589325,0.08625 2.665524,1.246207 0.367937,0.131849 0.599681,0.459766 0.599681,0.881683 0,0.533912 -0.421917,0.965756 -0.94373,0.965756 -0.522122,0 -0.945591,-0.431844 -0.945591,-0.965756 0,-0.248497 0.107962,-0.280451 0.257804,-0.45232 0,0 -0.171869,-0.557799 -0.815603,-0.08593 -0.234536,0.170008 -0.774342,0.773722 -0.602473,1.203706 0.0425,1.073717 1.45003,2.245778 3.479887,1.203705 0.333811,0.538254 0.953657,1.275989 1.589945,1.67588 0.657695,0.4123 1.325627,0.479931 1.269475,0.659866 -0.495753,1.573503 -1.913209,2.081355 -1.913209,2.081355 -0.98375,0.161942 -1.84837,0.138054 -1.975876,-0.679721 -0.643734,-1.331831 0.94373,-0.987783 0.471865,-1.889941 -0.388412,-0.129988 -0.902158,-0.08749 -1.112186,0.0081 -0.681583,0.423779 -1.123975,1.09016 -1.123975,1.839373 0,1.279712 1.28995,2.320235 2.879585,2.320235 0.694302,0 1.32966,-0.197929 1.827895,-0.525845 0.641872,-0.426261 1.396049,-0.764105 1.781359,-1.365958 0.429983,0.601853 1.817968,1.397601 2.192418,1.633999 0.68717,0.429673 2.83492,0.687787 1.28902,-0.344049 -2.479074,-1.651992 -2.10524,-3.35176 -2.10524,-3.35176 1.67557,-0.04188 4.55547,-2.363668 4.95722,-5.216883 2.45177,-1.43576 3.3015,-4.73354 1.88187,-7.518814 z M 94.86021,64.3226 c -1.075578,-0.557799 -1.461509,-1.371541 -1.461509,-2.191488 0,-0.849729 0.607747,-1.699768 1.461509,-2.319614 z m 3.479267,-8.292846 v 1.202154 c -1.031526,-0.08593 -1.84775,0.215922 -1.889321,0.18583 0.195447,-0.655833 0.865861,-1.321594 1.889321,-1.387984 z m 0,2.640085 v 6.299287 c 0,0 -0.94373,0.08407 -1.417456,-0.08842 -0.322022,-0.117579 -0.38593,-0.38593 -0.38593,-0.38593 V 58.99527 c 0.586386,-0.17841 1.191626,-0.28763 1.803386,-0.325435 z m -0.004,21.606818 c -1.113428,-0.343428 -1.625313,-1.397601 -1.671848,-2.117342 0.458215,0.08593 1.032147,0.301857 1.671848,0.257804 z m 0.004,-3.793222 c 0,0.263698 -0.85004,0.183968 -1.375885,-0.214061 C 96.633814,76.019636 96.53578,75.62564 96.53578,75.62564 v -6.747574 h 1.803386 z m 0.04405,-9.066878 h -1.805868 v -0.94373 c 0.687787,0.08594 1.032146,0.127816 1.805868,0.127816 z m 1.889943,-11.176465 c 0.88758,0.223989 1.59181,0.846006 1.80339,1.465853 -0.0838,0 -1.45996,-0.473727 -1.80339,-0.387792 z m -0.007,2.457668 c 0.51591,0 0.43649,0.167837 1.16616,0.21189 0.34219,0.125954 1.1336,0.222127 1.33152,0.515918 0.24633,0.358319 0.28821,1.10412 0.25843,1.931822 -0.11603,2.119824 -0.47187,2.96552 -1.15965,3.867679 -0.112,0.317989 -0.46628,0.243843 -0.81623,0.171869 -0.25674,-0.04939 -0.51474,-0.09201 -0.77372,-0.127816 z m 0.0506,21.480864 v -1.761815 c 1.18323,-0.06794 2.18374,-0.281382 2.6193,-0.513747 -0.0419,0.643735 -1.20339,1.813314 -2.6193,2.275562 z m 2.8799,-4.252989 c -0.68872,0.387792 -1.29212,0.643735 -1.84992,0.687788 -1.02967,-0.04405 -1.07403,0.09586 -1.07403,-0.08624 v -7.046639 c 0,0 3.2649,0.945591 3.39488,4.855461 0.0105,0.339085 0.0844,1.331211 -0.47093,1.589635 z m 2.019,-2.056226 -0.0357,-0.094 c -0.0403,-0.88975 -0.34032,-1.933374 -0.90216,-2.947527 -0.88571,-1.599563 -2.32954,-2.723538 -3.18889,-2.937599 0.11138,-0.107961 0.10331,-0.121922 0.24137,-0.197929 0.91829,-0.747662 3.01608,0.204444 3.99766,1.975876 0.95986,1.31601 0.81188,3.369444 -0.1123,4.201179 z" />
      </g>
    </g>
  </g>
</svg>
