<?xml version="1.0" encoding="UTF-8" standalone="no"?>
<svg
   xmlns:dc="http://purl.org/dc/elements/1.1/"
   xmlns:cc="http://creativecommons.org/ns#"
   xmlns:rdf="http://www.w3.org/1999/02/22-rdf-syntax-ns#"
   xmlns:svg="http://www.w3.org/2000/svg"
   xmlns="http://www.w3.org/2000/svg"
   xmlns:xlink="http://www.w3.org/1999/xlink"
   xmlns:sodipodi="http://sodipodi.sourceforge.net/DTD/sodipodi-0.dtd"
   xmlns:inkscape="http://www.inkscape.org/namespaces/inkscape"
   version="1.1"
   id="Layer_1"
   x="0px"
   y="0px"
   viewBox="0 0 200 200"
   xml:space="preserve"
   sodipodi:docname="banco_inter.svg"
   width="200"
   height="200"
   inkscape:export-filename="C:\Users\alex\sites\banco-bv-logo-0.png"
   inkscape:export-xdpi="561.73999"
   inkscape:export-ydpi="561.73999"
   inkscape:version="1.0 (4035a4fb49, 2020-05-01)"><metadata
     id="metadata215"><rdf:RDF><cc:Work
         rdf:about=""><dc:format>image/svg+xml</dc:format><dc:type
           rdf:resource="http://purl.org/dc/dcmitype/StillImage" /><dc:title /></cc:Work></rdf:RDF></metadata><defs
     id="defs213" /><sodipodi:namedview
     inkscape:document-rotation="0"
     inkscape:current-layer="g206"
     inkscape:window-maximized="1"
     inkscape:window-y="-8"
     inkscape:window-x="-8"
     inkscape:cy="100.88251"
     inkscape:cx="92.006922"
     inkscape:zoom="4.0232748"
     showgrid="false"
     id="namedview211"
     inkscape:window-height="1017"
     inkscape:window-width="1920"
     inkscape:pageshadow="2"
     inkscape:pageopacity="0"
     guidetolerance="10"
     gridtolerance="10"
     objecttolerance="10"
     borderopacity="1"
     bordercolor="#666666"
     pagecolor="#ffffff" /><style
     id="style2"
     type="text/css">
	.st0{enable-background:new    ;}
	.st1{clip-path:url(#SVGID_1_);}
	.st2{clip-path:url(#SVGID_2_);}
	.st3{clip-path:url(#SVGID_3_);fill:#5BC9E1;}
	.st4{clip-path:url(#SVGID_4_);}
	.st5{opacity:0.75;clip-path:url(#SVGID_5_);enable-background:new    ;}
	.st6{clip-path:url(#SVGID_6_);}
	.st7{clip-path:url(#SVGID_7_);}
	.st8{clip-path:url(#SVGID_8_);}
	.st9{clip-path:url(#SVGID_5_);fill:#5BC9E1;}
	.st10{clip-path:url(#SVGID_5_);fill:#5C73B8;}
	.st11{clip-path:url(#SVGID_10_);}
	.st12{opacity:0.75;clip-path:url(#SVGID_11_);enable-background:new    ;}
	.st13{clip-path:url(#SVGID_12_);}
	.st14{clip-path:url(#SVGID_13_);}
	.st15{clip-path:url(#SVGID_14_);}
	.st16{clip-path:url(#SVGID_16_);}
	.st17{opacity:0.75;clip-path:url(#SVGID_17_);enable-background:new    ;}
	.st18{clip-path:url(#SVGID_18_);}
	.st19{clip-path:url(#SVGID_19_);}
	.st20{clip-path:url(#SVGID_20_);}
	.st21{clip-path:url(#SVGID_17_);fill:#5C73B8;}
</style><g
     transform="translate(0,368.17639)"
     style="enable-background:new"
     id="g208"
     class="st0"><g
       id="g206"><defs
         id="defs5"><rect
           height="329"
           width="455"
           y="1.411811"
           x="1.411811"
           id="SVGID_47_" /></defs><clipPath
         id="SVGID_1_"><use
           height="100%"
           width="100%"
           y="0"
           x="0"
           id="use7"
           style="overflow:visible"
           xlink:href="#SVGID_47_" /></clipPath><circle
         r="100"
         cy="-268.17639"
         cx="100"
         id="path1734"
         style="fill:#f5f5f5;stroke-width:0.876756" /><g
         id="g1672"><path
           transform="translate(0,-368.17639)"
           d="M 61.759766 71.292969 C 61.246765 71.316355 60.740646 71.395148 60.357422 71.523438 C 59.449083 71.827517 58.558497 72.46995 58.091797 73.15625 C 57.838581 73.52863 57.544776 74.175531 57.431641 74.613281 C 57.292021 75.153481 57.264413 76.202072 57.375 76.757812 C 57.774626 78.766062 59.36089 80.141975 61.488281 80.328125 C 62.030615 80.375535 62.300952 80.365031 62.964844 80.269531 C 64.751129 80.012561 66.216493 78.680571 66.609375 76.957031 C 67.208454 74.328921 65.764426 71.969551 63.203125 71.394531 C 62.792833 71.302416 62.272767 71.269582 61.759766 71.292969 z M 62.220703 73.007812 C 62.408807 73.018865 62.592727 73.044821 62.765625 73.089844 C 64.125897 73.444054 64.915958 74.846403 64.636719 76.408203 C 64.427802 77.576683 63.623639 78.392738 62.488281 78.585938 C 62.270476 78.623038 62.025332 78.650484 61.945312 78.646484 C 60.416632 78.572574 59.366096 77.454406 59.347656 75.884766 C 59.340642 75.288226 59.436178 74.842559 59.667969 74.380859 C 59.85787 74.002589 60.288188 73.542298 60.650391 73.330078 C 61.059387 73.090446 61.656392 72.974655 62.220703 73.007812 z "
           style="fill:#7f7f7f;fill-opacity:1;stroke-width:0.060166"
           id="path1704" /><path
           transform="translate(0,-368.17639)"
           d="M 29.357422 71.263672 C 29.183277 71.259747 29.000335 71.274387 28.724609 71.304688 C 27.571434 71.431318 26.733379 71.815061 26.003906 72.550781 C 25.495569 73.063471 25.233642 73.48707 24.992188 74.1875 C 24.83066 74.65606 24.808593 74.810281 24.783203 75.619141 C 24.749561 76.690801 24.852422 77.226274 25.246094 78.021484 C 25.912671 79.367944 27.134323 80.177842 28.720703 80.326172 C 29.991632 80.445002 31.13948 80.118364 31.857422 79.433594 C 32.030092 79.268904 32.185402 79.134766 32.201172 79.134766 C 32.216942 79.134766 32.228516 79.377588 32.228516 79.673828 L 32.228516 80.210938 L 33.191406 80.230469 L 34.154297 80.248047 L 34.154297 75.810547 L 34.154297 71.373047 L 33.130859 71.373047 L 32.109375 71.373047 L 32.109375 71.884766 C 32.109375 72.166036 32.092006 72.396484 32.072266 72.396484 C 32.052526 72.396484 31.911801 72.283404 31.757812 72.146484 C 31.335836 71.771304 30.613297 71.448421 29.939453 71.332031 C 29.696538 71.290031 29.531566 71.267597 29.357422 71.263672 z M 29.261719 73.013672 C 30.792656 72.926602 31.906016 73.830841 32.119141 75.337891 C 32.349308 76.965461 31.429755 78.334137 29.9375 78.585938 C 29.455373 78.667258 29.352159 78.666143 28.884766 78.564453 C 27.880902 78.346053 27.171384 77.65042 26.904297 76.625 C 26.728453 75.94989 26.822781 74.954043 27.117188 74.376953 C 27.330689 73.958453 27.820003 73.494509 28.291016 73.261719 C 28.669223 73.074789 28.808188 73.039472 29.261719 73.013672 z "
           style="fill:#7f7f7f;fill-opacity:1;stroke-width:0.060166"
           id="path1698" /><path
           transform="translate(0,-368.17639)"
           d="M 13.578125 67.882812 L 13.578125 74.050781 L 13.578125 80.216797 L 14.541016 80.216797 L 15.503906 80.216797 L 15.503906 79.675781 C 15.503906 79.377961 15.524401 79.134766 15.550781 79.134766 C 15.577156 79.134766 15.705129 79.244786 15.835938 79.378906 C 16.347758 79.903666 17.116671 80.242072 17.984375 80.326172 C 18.515928 80.377672 18.706148 80.369751 19.414062 80.269531 C 20.639456 80.096061 21.718702 79.373669 22.363281 78.292969 C 23.210616 76.872289 23.207714 74.767569 22.357422 73.318359 C 22.053768 72.800829 21.333147 72.106573 20.828125 71.845703 C 19.474668 71.146563 17.952621 71.081202 16.736328 71.669922 C 16.470855 71.798422 16.128288 72.015121 15.974609 72.150391 C 15.82093 72.285671 15.679896 72.396484 15.660156 72.396484 C 15.640416 72.396484 15.623047 71.381555 15.623047 70.140625 L 15.623047 67.882812 L 14.599609 67.882812 L 13.578125 67.882812 z M 18.478516 73.013672 C 19.139395 73.057382 19.585269 73.241111 20.027344 73.650391 C 20.657917 74.234191 20.918516 74.859876 20.916016 75.785156 C 20.913494 76.729876 20.695512 77.32011 20.140625 77.875 C 19.752227 78.26339 19.305285 78.490738 18.746094 78.585938 C 18.274782 78.666137 18.171407 78.665059 17.699219 78.568359 C 16.745633 78.373039 16.055044 77.748825 15.736328 76.796875 C 15.566706 76.290245 15.550443 75.420299 15.701172 74.917969 C 16.084453 73.640639 17.127681 72.924372 18.478516 73.013672 z "
           style="fill:#7f7f7f;fill-opacity:1;stroke-width:0.060166"
           id="path1694" /><path
           id="path1708"
           d="m 36.62125,-292.38121 v -4.4222 h 0.962656 0.962656 v 0.5415 c 0,0.29782 0.02367,0.54149 0.0526,0.54149 0.02893,0 0.157535,-0.0962 0.285788,-0.2138 0.568977,-0.52168 1.245196,-0.80952 2.184501,-0.92987 1.721746,-0.2206 3.264535,0.47808 3.876141,1.7554 0.388753,0.81189 0.399722,0.92727 0.399722,4.20528 v 2.9444 h -0.988912 -0.988911 l -0.02181,-2.75259 c -0.02128,-2.6858 -0.02512,-2.76163 -0.158562,-3.12507 -0.175425,-0.47779 -0.521487,-0.86921 -0.956784,-1.08218 -0.290418,-0.14209 -0.4355,-0.17123 -0.945475,-0.18988 -0.500553,-0.0183 -0.668451,1.9e-4 -0.992962,0.10983 -0.709024,0.23939 -1.204298,0.73381 -1.477071,1.47454 -0.09984,0.27111 -0.113058,0.56088 -0.133819,2.93309 l -0.02304,2.63226 h -1.018366 -1.018364 z"
           style="fill:#7f7f7f;fill-opacity:1;stroke-width:0.060166" /><path
           id="path1702"
           d="m 51.843245,-287.84538 c -1.696457,-0.15195 -3.115592,-1.05873 -3.78099,-2.41591 -0.319926,-0.65254 -0.429772,-1.08361 -0.471888,-1.85184 -0.09177,-1.67392 0.622733,-3.13308 1.95672,-3.99603 1.76797,-1.1437 4.464068,-1.0313 5.841003,0.24349 0.327554,0.30326 0.72694,0.83232 0.72694,0.96298 0,0.0303 -0.339099,0.25406 -0.753553,0.49733 l -0.75355,0.44232 -0.131937,-0.17169 c -0.954298,-1.24186 -2.817972,-1.40939 -3.983011,-0.35804 -1.088102,0.98191 -1.175013,2.98617 -0.176269,4.06494 0.490172,0.52944 0.967042,0.7639 1.774063,0.87225 0.830284,0.11147 1.848753,-0.32241 2.336139,-0.99523 l 0.163149,-0.22522 0.786027,0.45563 0.786028,0.45562 -0.176413,0.28671 c -0.558788,0.90815 -1.759688,1.61128 -2.920844,1.71017 -0.225156,0.0192 -0.47706,0.0424 -0.559788,0.0516 -0.08273,0.009 -0.38055,-0.004 -0.661826,-0.0291 z"
           style="fill:#7f7f7f;fill-opacity:1;stroke-width:0.060166" /><path
           id="path1692"
           d="m 160.76199,-237.53719 c -0.10575,-0.0645 -0.24112,-0.19179 -0.30083,-0.28292 -0.10409,-0.15886 -0.10856,-0.99567 -0.10856,-20.32393 0,-19.1742 0.005,-20.16777 0.10653,-20.3532 0.0586,-0.10722 0.2075,-0.24552 0.33091,-0.30732 0.25508,-0.12773 1.63723,-0.50883 2.84161,-0.7835 5.88868,-1.34298 14.00335,-1.72312 19.43361,-0.91039 1.11106,0.16629 3.00906,0.56142 3.1716,0.66026 0.22979,0.13975 0.40114,0.49878 0.35975,0.75382 -0.0267,0.16447 -0.77074,2.54041 -1.03626,3.30905 -0.0457,0.13237 -0.31691,0.97168 -0.60262,1.86515 -1.44086,4.50576 -1.31505,4.16221 -1.59306,4.35007 -0.25889,0.17495 -0.44129,0.16367 -1.5629,-0.0966 -1.12685,-0.26152 -1.9346,-0.3658 -3.36929,-0.43497 -2.20081,-0.10612 -5.78454,0.0957 -6.21903,0.35017 -0.0968,0.0567 -0.23305,0.17957 -0.30269,0.27299 l -0.12662,0.16987 -0.0301,15.68387 c -0.028,14.61726 -0.037,15.69367 -0.13205,15.82791 -0.0561,0.0792 -0.17793,0.1941 -0.27075,0.2553 -0.16086,0.10606 -0.40858,0.11129 -5.28288,0.11145 -4.96334,0 -5.11978,-0.003 -5.30638,-0.11706 z"
           style="fill:#ff7a00;fill-opacity:1;stroke-width:0.060166" /><path
           id="path1690"
           d="m 34.990624,-237.55569 c -0.438726,-0.29222 -0.408224,0.83152 -0.34661,-12.76944 0.125765,-27.76182 0.128629,-28.07753 0.256399,-28.26605 0.06282,-0.0927 0.186642,-0.20598 0.275154,-0.25175 0.190168,-0.0983 1.823118,-0.50179 2.889667,-0.71394 6.056434,-1.20473 15.340014,-1.72714 19.476395,-1.09599 3.412121,0.52063 6.463629,1.79845 8.772057,3.67329 0.774398,0.62894 1.982307,1.89028 2.573117,2.68693 1.884524,2.54109 2.926808,5.32766 3.428694,9.16668 0.123648,0.94582 0.126254,1.1894 0.148944,13.92842 0.01577,8.85619 0.0033,13.03331 -0.03941,13.17885 -0.03438,0.1172 -0.146102,0.29318 -0.248279,0.39108 l -0.185776,0.178 -5.111234,0.016 c -5.593882,0.0175 -5.33677,0.0328 -5.574834,-0.3305 -0.09995,-0.15252 -0.107772,-0.89419 -0.140158,-13.28039 -0.03724,-14.24381 -0.01487,-13.33138 -0.356156,-14.5287 -0.686487,-2.4084 -2.541495,-3.85688 -5.596058,-4.36968 -1.377423,-0.23124 -5.288722,-0.22882 -7.580914,0.005 -1.035192,0.10546 -1.277395,0.18751 -1.488315,0.50417 l -0.136167,0.20444 -1.2e-4,15.55905 c -6e-5,14.69282 -0.0059,15.5707 -0.105291,15.76843 -0.05786,0.11516 -0.197194,0.27084 -0.309634,0.34596 l -0.204411,0.13657 h -5.096312 -5.096315 z"
           style="fill:#ff7a00;fill-opacity:1;stroke-width:0.060166" /><path
           id="path1688"
           d="m 13.829886,-237.54129 c -0.114919,-0.0701 -0.247858,-0.22889 -0.31455,-0.37581 -0.113176,-0.24931 -0.115539,-0.6697 -0.116835,-20.76711 l -0.0013,-20.51264 0.12395,-0.25605 c 0.09039,-0.18672 0.194012,-0.28996 0.382757,-0.38133 0.256779,-0.1243 0.298412,-0.12516 5.30871,-0.1089 4.75018,0.0154 5.059734,0.0228 5.215552,0.12493 0.09111,0.0597 0.218405,0.19509 0.282884,0.30083 0.1156,0.18959 0.117239,0.48003 0.117459,20.82011 1.81e-4,18.81908 -0.0083,20.6457 -0.09643,20.83153 -0.05316,0.11203 -0.18496,0.25826 -0.29289,0.32496 -0.192719,0.11911 -0.287733,0.12128 -5.303243,0.12106 -5.015186,0 -5.110585,-0.002 -5.306044,-0.12158 z"
           style="fill:#ff7a00;fill-opacity:1;stroke-width:0.060166" /><path
           id="path1686"
           d="m 133.24782,-236.43162 c -0.14891,-0.0127 -0.70394,-0.0524 -1.2334,-0.0882 -7.39788,-0.5007 -12.8466,-3.36795 -15.88722,-8.36022 -1.66447,-2.73282 -2.59766,-5.86602 -3.01055,-10.10789 -0.14513,-1.49096 -0.14513,-5.89792 0,-7.40041 0.37246,-3.85622 1.08925,-6.62118 2.39202,-9.22702 2.54851,-5.0976 6.89706,-8.08856 13.13646,-9.03534 2.35001,-0.3566 6.05317,-0.35612 8.45332,10e-4 7.88823,1.17396 12.74776,5.51373 14.65282,13.08561 0.53202,2.11455 0.9292,5.44719 0.86187,7.23162 -0.0196,0.52067 -0.0378,0.59907 -0.17237,0.74529 -0.0827,0.0899 -0.65129,0.40668 -1.26348,0.70401 -1.28852,0.62579 -2.8111,1.36613 -4.39212,2.13562 -0.61219,0.29796 -1.62072,0.78867 -2.24118,1.09047 -2.33208,1.13437 -3.35847,1.63383 -4.52749,2.20313 -0.66183,0.3223 -1.63652,0.79606 -2.16598,1.05279 -0.52946,0.25673 -1.60891,0.78148 -2.39879,1.16611 -1.65839,0.80755 -1.81233,0.84325 -2.17244,0.50379 -0.14822,-0.13973 -0.80902,-1.34617 -2.31506,-4.22666 -1.82502,-3.49061 -2.10769,-4.06618 -2.10807,-4.29259 -5.6e-4,-0.3275 0.1369,-0.56529 0.41529,-0.71839 0.40359,-0.22196 1.47431,-0.77665 4.06662,-2.10673 1.42293,-0.73008 3.2234,-1.65471 4.00104,-2.05473 0.77765,-0.40003 1.85386,-0.95013 2.39159,-1.22246 l 0.97769,-0.49515 -7.5e-4,-0.30083 c -0.003,-1.19209 -0.91585,-2.38201 -2.39921,-3.12675 -0.48949,-0.24576 -1.46428,-0.54772 -2.26716,-0.70232 -0.63346,-0.12197 -0.89795,-0.13811 -2.25199,-0.1374 -1.6672,9.4e-4 -2.36361,0.0838 -3.526,0.41981 -3.55279,1.02708 -5.30546,4.13788 -5.48976,9.74376 -0.16622,5.05563 0.71826,8.19754 2.90017,10.30224 1.24904,1.20485 2.72407,1.89221 4.82202,2.24706 2.99689,0.50689 10.35345,-0.13278 14.96202,-1.30099 0.67098,-0.17009 0.83531,-0.17994 1.0603,-0.0636 0.34348,0.17762 0.26945,-0.001 1.2458,3.01446 1.12852,3.48609 1.32591,4.09333 1.69169,5.20436 0.36702,1.11479 0.40394,1.3793 0.2329,1.66885 -0.16015,0.2711 -0.33198,0.34501 -1.50711,0.64821 -3.44312,0.88837 -7.20262,1.45379 -11.39826,1.71429 -1.02769,0.0638 -5.05827,0.12581 -5.53527,0.0851 z"
           style="fill:#ff7a00;fill-opacity:1;stroke-width:0.060166" /><path
           id="path1624"
           d="m 95.613998,-236.07076 c -1.61259,-0.11992 -2.11096,-0.17177 -2.91805,-0.30358 -2.80477,-0.45805 -5.14904,-1.41933 -7.096926,-2.91013 -2.933291,-2.24499 -4.760934,-5.77878 -5.321129,-10.28855 -0.208119,-1.67542 -0.216802,-2.56381 -0.216802,-22.18711 0,-20.82476 -0.01502,-19.7422 0.277485,-19.99854 0.06248,-0.0548 2.008822,-1.09312 4.325213,-2.30748 2.316389,-1.21436 4.566609,-2.3947 5.000489,-2.62296 0.53854,-0.28333 0.85551,-0.41503 0.99888,-0.41503 0.2688,0 0.5888,0.21324 0.72408,0.48252 0.0986,0.19616 0.10521,0.70844 0.10529,8.11212 0,8.8008 -0.0307,8.17076 0.41263,8.44642 l 0.21921,0.13633 6.60208,0.0301 6.602082,0.0301 0.19668,0.1967 0.19668,0.19669 v 4.96138 4.96138 l -0.19668,0.1967 -0.19668,0.1967 -6.602082,0.0301 c -6.46598,0.0295 -6.60628,0.0326 -6.80585,0.15041 -0.11208,0.0662 -0.25422,0.21468 -0.31587,0.32998 -0.10779,0.20159 -0.11209,0.52631 -0.11174,8.45332 5.6e-4,8.83597 0.001,8.85919 0.30329,9.77791 0.23752,0.7221 0.52931,1.20083 1.04667,1.71727 0.40663,0.4059 0.58655,0.53396 1.11649,0.79467 1.19385,0.58734 2.39825,0.82331 4.18153,0.81924 2.453092,-0.006 4.045412,-0.48673 7.855622,-2.37366 1.7947,-0.88879 1.96411,-0.94262 2.34553,-0.74538 0.21255,0.10991 0.22085,0.12596 1.7109,3.30757 0.61991,1.32365 1.41986,3.02936 1.77769,3.79046 0.35782,0.7611 0.66877,1.45683 0.69102,1.54608 0.0546,0.21889 -0.0585,0.53629 -0.25818,0.72499 -0.17142,0.16198 -2.28379,1.22965 -3.83419,1.93795 -3.5222,1.6091 -6.52453,2.47104 -9.536312,2.73779 -0.76679,0.0679 -2.80983,0.12249 -3.27905,0.0876 z"
           style="fill:#ff7a00;fill-opacity:1;stroke-width:0.060166" /></g></g></g></svg>
