<?xml version="1.0" encoding="UTF-8" standalone="no"?>
<svg
   xmlns:dc="http://purl.org/dc/elements/1.1/"
   xmlns:cc="http://creativecommons.org/ns#"
   xmlns:rdf="http://www.w3.org/1999/02/22-rdf-syntax-ns#"
   xmlns:svg="http://www.w3.org/2000/svg"
   xmlns="http://www.w3.org/2000/svg"
   xmlns:sodipodi="http://sodipodi.sourceforge.net/DTD/sodipodi-0.dtd"
   xmlns:inkscape="http://www.inkscape.org/namespaces/inkscape"
   sodipodi:docname="bradesco.svg"
   inkscape:version="1.0 (6e3e5246a0, 2020-05-07)"
   id="svg8"
   version="1.1"
   viewBox="0 0 200 200"
   height="200mm"
   width="200mm">
  <defs
     id="defs2" />
  <sodipodi:namedview
     inkscape:window-maximized="1"
     inkscape:window-y="28"
     inkscape:window-x="0"
     inkscape:window-height="1024"
     inkscape:window-width="1920"
     showgrid="false"
     inkscape:document-rotation="0"
     inkscape:current-layer="layer1"
     inkscape:document-units="mm"
     inkscape:cy="598.24743"
     inkscape:cx="365.53094"
     inkscape:zoom="0.5"
     inkscape:pageshadow="2"
     inkscape:pageopacity="0.0"
     borderopacity="1.0"
     bordercolor="#666666"
     pagecolor="#ffffff"
     id="base" />
  <metadata
     id="metadata5">
    <rdf:RDF>
      <cc:Work
         rdf:about="">
        <dc:format>image/svg+xml</dc:format>
        <dc:type
           rdf:resource="http://purl.org/dc/dcmitype/StillImage" />
        <dc:title></dc:title>
      </cc:Work>
    </rdf:RDF>
  </metadata>
  <g
     id="layer1"
     inkscape:groupmode="layer"
     inkscape:label="Layer 1">
    <circle
       r="100"
       cy="100"
       cx="100"
       id="path833"
       style="fill:#f5f5f5;fill-opacity:1;stroke-width:0.854044" />
    <g
       transform="matrix(0.58027435,0,0,0.58027435,-103.09612,-67.291683)"
       id="g905">
      <path
         inkscape:connector-curvature="0"
         d="m 343.17727,219.94192 c -14.59707,0 -30.55714,1.34058 -46.32178,4.02175 15.95944,-20.4903 41.26129,-33.70384 69.48268,-33.70384 20.82575,0 41.65089,7.85182 55.66418,19.53309 2.53056,2.1061 4.47671,2.29779 6.42349,0.38276 1.94615,-1.91503 1.75135,-3.83007 -0.38961,-6.31955 -18.2952,-21.25582 -45.15421,-35.61826 -76.87892,-35.04381 -41.4561,0.76614 -76.68413,27.00092 -90.11426,63.38531 -12.26132,3.83007 -23.54987,8.42565 -33.47606,13.97907 -2.72473,1.53227 -3.69812,3.4473 -2.72473,5.7451 0.97276,2.1061 2.91954,2.87224 5.64427,2.1061 8.56382,-2.48948 17.32182,-4.59559 26.47004,-6.51062 -0.97339,4.78727 -1.55717,9.76624 -1.55717,14.93689 -0.77859,33.51153 17.12701,65.29973 44.76461,82.7261 2.72474,1.72334 5.06049,1.72334 6.61767,-0.38276 1.55717,-2.10673 1.36236,-4.02176 -0.97339,-6.12848 -17.51662,-15.70241 -27.248,-39.06495 -27.248,-62.2358 0,-11.68127 2.33513,-22.97916 6.81184,-33.12877 9.1476,-0.76614 19.07379,-1.34059 29.97274,-1.34059 70.84567,0 130.59758,23.36254 130.59758,54.00183 0,15.51134 -19.65757,31.02206 -43.01388,41.36336 -5.64366,2.48949 -6.22744,4.21283 -5.44948,6.70231 0.77859,2.29779 3.30914,3.06393 6.22806,2.1061 40.87293,-13.40461 71.81906,-35.42657 71.81906,-62.0441 0,-36.19271 -58.38893,-64.15145 -132.34894,-64.15145"
         style="fill:#ce1c30;fill-opacity:1;fill-rule:nonzero;stroke:none;stroke-width:0.062237"
         id="path30" />
      <path
         inkscape:connector-curvature="0"
         d="m 377.00684,404.03161 v -77.53926 c 0,-2.9712 -2.86913,-4.05537 -5.23476,-2.70793 l -19.71234,11.34456 v 72.64246 l 21.17491,0.028 c 2.08245,0.002 3.77219,-1.68475 3.77219,-3.76783"
         style="fill:#ce1c30;fill-opacity:1;fill-rule:nonzero;stroke:none;stroke-width:0.062237"
         id="path32" />
      <path
         inkscape:connector-curvature="0"
         d="m 328.0655,351.74939 v 53.62032 c 0,1.34183 1.0879,2.42973 2.42973,2.42973 h 14.91573 v -68.8491 l -14.89021,8.57377 c -1.51796,0.8651 -2.45525,2.22747 -2.45525,4.22528"
         style="fill:#ce1c30;fill-opacity:1;fill-rule:nonzero;stroke:none;stroke-width:0.062237"
         id="path34" />
    </g>
  </g>
</svg>
