<?xml version="1.0" encoding="UTF-8" standalone="no"?>
<svg
   xmlns:dc="http://purl.org/dc/elements/1.1/"
   xmlns:cc="http://creativecommons.org/ns#"
   xmlns:rdf="http://www.w3.org/1999/02/22-rdf-syntax-ns#"
   xmlns:svg="http://www.w3.org/2000/svg"
   xmlns="http://www.w3.org/2000/svg"
   xmlns:sodipodi="http://sodipodi.sourceforge.net/DTD/sodipodi-0.dtd"
   xmlns:inkscape="http://www.inkscape.org/namespaces/inkscape"
   width="200mm"
   height="200mm"
   viewBox="0 0 200 200"
   version="1.1"
   id="svg8"
   inkscape:version="1.0 (6e3e5246a0, 2020-05-07)"
   sodipodi:docname="btg_pactual.svg">
  <defs
     id="defs2">
    <clipPath
       clipPathUnits="userSpaceOnUse"
       id="clipPath34">
      <path
         d="M -39.360001,-7.04 V 39.200001 H 98.879997 V -7.04 Z"
         id="path32"
         inkscape:connector-curvature="0"
         style="clip-rule:evenodd" />
    </clipPath>
    <clipPath
       clipPathUnits="userSpaceOnUse"
       id="clipPath44">
      <path
         d="M 91.040001,82.879997 H 229.28 V 129.11999 H 91.040001 Z"
         id="path42"
         inkscape:connector-curvature="0"
         style="clip-rule:evenodd" />
    </clipPath>
  </defs>
  <sodipodi:namedview
     id="base"
     pagecolor="#ffffff"
     bordercolor="#666666"
     borderopacity="1.0"
     inkscape:pageopacity="0.0"
     inkscape:pageshadow="2"
     inkscape:zoom="0.7"
     inkscape:cx="432.09012"
     inkscape:cy="409.11336"
     inkscape:document-units="mm"
     inkscape:current-layer="layer1"
     inkscape:document-rotation="0"
     showgrid="false"
     inkscape:window-width="1920"
     inkscape:window-height="1024"
     inkscape:window-x="0"
     inkscape:window-y="28"
     inkscape:window-maximized="1" />
  <metadata
     id="metadata5">
    <rdf:RDF>
      <cc:Work
         rdf:about="">
        <dc:format>image/svg+xml</dc:format>
        <dc:type
           rdf:resource="http://purl.org/dc/dcmitype/StillImage" />
        <dc:title></dc:title>
      </cc:Work>
    </rdf:RDF>
  </metadata>
  <g
     inkscape:label="Layer 1"
     inkscape:groupmode="layer"
     id="layer1">
    <circle
       style="fill:#f5f5f5;fill-opacity:1;stroke-width:0.854044"
       id="path833"
       cx="100.1"
       cy="100"
       r="100" />
    <g
       transform="translate(8.2346877,2.8792138)"
       id="g910">
      <g
         inkscape:export-ydpi="21.252909"
         inkscape:export-xdpi="21.252909"
         inkscape:export-filename="C:\Users\suitedoalex\sites\btg-pactual-logo-4.png"
         transform="matrix(3.4581322,0,0,3.4581322,149.40855,41.513772)"
         id="g28">
        <g
           clip-path="url(#clipPath34)"
           id="g30">
          <path
             sodipodi:nodetypes="scccccsssccccsscccccsscccccsssccccsscccccs"
             inkscape:connector-curvature="0"
             id="path36"
             style="fill:#007ec0;fill-opacity:1;fill-rule:evenodd;stroke:none"
             d="M 0,0 V 0 C -0.17254933,-0.05767723 -0.43315641,-0.10877886 -0.64,-0.16 -5.28,-1.12 -12,0.16 -18.4,5.92 l 1.600001,2.24 C -11.36,3.04 -4.48,-0.16 0.16,0.32 0.32,0.32 0.48,0.16 0,0 Z m -3.2,-2.72 v 0 c 0.32,0.16 0.32,-0.16 -0.16,-0.48 -0.1711087,-0.05226 -0.3337131,-0.09693 -0.48,-0.16 -7.68,-3.52 -15.360001,-2.4 -20.799999,1.12 l 1.76,2.24 C -17.280001,-4 -9.12,-5.28 -3.2,-2.72 Z m -20.32,6.24 v 0 l 1.76,2.24 c 6.88,-7.04 16,-8.64 21.28,-6.56 0.21306025,0.0846171 0.16,0 -0.32,-0.32 C -0.97719602,-1.2310212 -1.2420349,-1.3771018 -1.4434069,-1.4647791 -7.2034069,-4.0247791 -16.48,-3.36 -23.52,3.52 Z m 13.6,20.64 v 0 l -1.76,-2.24 c -5.279999,5.280001 -12.16,8.48 -16.8,8 -0.312194,-0.04647 -0.159999,0 0.32,0.16 0,0 0.143942,0.06246 0.48,0.16 4.479999,1.120001 11.36,-0.32 17.76,-6.08 z m -15.200001,8.799999 v 0 c -0.32,-0.16 -0.398804,-0.05473 0.160002,0.32 0.128158,0.09108 0.266767,0.230928 0.479999,0.319999 C -16.959999,36.959999 -9.12,35.84 -3.68,32.32 l -1.76,-2.24 c -5.6,4.160002 -13.760001,5.280001 -19.680001,2.879999 z M -4.8,26.719999 v 0 L -6.56,24.32 c -7.04,7.2 -15.999999,8.799999 -21.28,6.559999 -0.16,-0.16 -0.16,0.160002 0.32,0.480002 0.157129,0.110028 0.424693,0.211255 0.640001,0.319999 C -21.120001,34.080002 -11.84,33.599998 -4.8,26.719999 Z" />
        </g>
      </g>
      <g
         inkscape:export-ydpi="21.252909"
         inkscape:export-xdpi="21.252909"
         inkscape:export-filename="C:\Users\suitedoalex\sites\btg-pactual-logo-4.png"
         id="g38"
         transform="matrix(3.4581322,0,0,3.4581322,-301.53181,-269.44154)">
        <g
           clip-path="url(#clipPath44)"
           id="g40">
          <path
             inkscape:connector-curvature="0"
             id="path46"
             style="fill:#00447c;fill-opacity:1;fill-rule:evenodd;stroke:none"
             d="m 135.2,114.56 v 0 c -2.23999,4.32 -5.44001,7.68 -9.92,9.92 -10.72,5.27999 -24,0.96 -29.28,-9.76 -5.279999,-10.88 -0.32,-23.840003 10.4,-29.120002 3.04,-1.439994 6.24,-2.080001 9.28,-2.239997 1.12,0 2.56,0.159996 3.84,0.319999 0.32,0.159996 0.32,-0.160003 0,-0.160003 -1.28,-0.32 -2.85544,-0.503015 -4.01517,-0.566364 -4,-0.319999 -7.82483,0.406368 -11.50483,2.16637 C 92.480003,90.720001 87.68,104.64 93.440002,116.16 99.040001,127.68 112.8,132.48 124.32,126.72 c 5.43999,-2.56 9.28001,-6.88 11.35999,-12 0.80001,-1.6 0.80001,-2.4 0.80001,-2.56 0,-0.8 -0.80001,1.44 -1.28,2.4 z"
             sodipodi:nodetypes="sscccccccccccss" />
        </g>
      </g>
    </g>
  </g>
</svg>
