<?xml version="1.0" encoding="UTF-8" standalone="no"?>
<svg
   xmlns:dc="http://purl.org/dc/elements/1.1/"
   xmlns:cc="http://creativecommons.org/ns#"
   xmlns:rdf="http://www.w3.org/1999/02/22-rdf-syntax-ns#"
   xmlns:svg="http://www.w3.org/2000/svg"
   xmlns="http://www.w3.org/2000/svg"
   xmlns:sodipodi="http://sodipodi.sourceforge.net/DTD/sodipodi-0.dtd"
   xmlns:inkscape="http://www.inkscape.org/namespaces/inkscape"
   width="200mm"
   height="200mm"
   viewBox="0 0 200 200"
   version="1.1"
   id="svg8"
   inkscape:version="1.0 (6e3e5246a0, 2020-05-07)"
   sodipodi:docname="citibank.svg">
  <defs
     id="defs2">
    <clipPath
       clipPathUnits="userSpaceOnUse"
       id="clipPath34">
      <path
         d="M -39.360001,-7.04 V 39.200001 H 98.879997 V -7.04 Z"
         id="path32"
         inkscape:connector-curvature="0"
         style="clip-rule:evenodd" />
    </clipPath>
    <clipPath
       clipPathUnits="userSpaceOnUse"
       id="clipPath44">
      <path
         d="M 91.040001,82.879997 H 229.28 V 129.11999 H 91.040001 Z"
         id="path42"
         inkscape:connector-curvature="0"
         style="clip-rule:evenodd" />
    </clipPath>
  </defs>
  <sodipodi:namedview
     id="base"
     pagecolor="#ffffff"
     bordercolor="#666666"
     borderopacity="1.0"
     inkscape:pageopacity="0.0"
     inkscape:pageshadow="2"
     inkscape:zoom="0.24748738"
     inkscape:cx="-990.63141"
     inkscape:cy="924.43546"
     inkscape:document-units="mm"
     inkscape:current-layer="g1046"
     inkscape:document-rotation="0"
     showgrid="false"
     inkscape:window-width="1920"
     inkscape:window-height="1024"
     inkscape:window-x="0"
     inkscape:window-y="28"
     inkscape:window-maximized="1" />
  <metadata
     id="metadata5">
    <rdf:RDF>
      <cc:Work
         rdf:about="">
        <dc:format>image/svg+xml</dc:format>
        <dc:type
           rdf:resource="http://purl.org/dc/dcmitype/StillImage" />
        <dc:title></dc:title>
      </cc:Work>
    </rdf:RDF>
  </metadata>
  <g
     inkscape:label="Layer 1"
     inkscape:groupmode="layer"
     id="layer1">
    <circle
       style="fill:#1c4882;fill-opacity:1;stroke-width:0.854044"
       id="path833"
       cx="100.1"
       cy="100"
       r="100" />
    <g
       transform="matrix(0.3042924,0,0,0.3042924,59.890631,74.847811)"
       id="g1046">
      <g
         transform="translate(-9.5122872)"
         id="g1051">
        <path
           style="fill:#ffffff;fill-opacity:1;stroke-width:3.43159"
           d="m -79.351428,126.81437 -0.425516,0.41865 c -6.828851,6.95582 -14.73522,10.64477 -22.874936,10.64477 -16.9932,0 -29.33318,-12.75519 -29.33318,-30.35235 0,-17.562853 12.33998,-30.324911 29.33318,-30.324911 8.139716,0 16.046085,3.695814 22.874936,10.665363 l 0.425516,0.428947 10.929594,-13.221893 -0.291685,-0.356883 c -9.083399,-10.74429 -19.995837,-15.96716 -33.406471,-15.96716 -13.44837,0 -25.75746,4.529691 -34.62124,12.693428 -9.63932,8.850056 -14.7215,21.320429 -14.7215,36.086539 0,14.76953 5.08218,27.27079 14.7215,36.11742 8.86378,8.20491 21.16944,12.70372 34.62124,12.70372 13.410634,0 24.323072,-5.22287 33.406471,-15.97059 l 0.291685,-0.33287 z m 21.975864,27.72719 h 19.312948 V 60.272527 h -19.312948 z m 94.965648,-20.49342 c -5.1611,3.13647 -9.9516,4.71843 -14.2651,4.71843 -6.23861,0 -9.06281,-3.29432 -9.06281,-10.63104 V 78.109897 h 19.6767 V 60.358316 h -19.6767 V 31.021708 L -4.6630064,41.155175 V 60.358316 H -20.990486 v 17.751581 h 16.3274796 v 53.220433 c 0,14.48815 8.58582,24.3917 21.4165104,24.66279 8.69906,0.16815 13.94596,-2.42613 17.13047,-4.32722 l 0.1956,-0.1304 4.64293,-18.18053 z m 15.98431,20.49342 h 19.33011 V 60.272527 h -19.33011 z"
           fill="#1c4882"
           id="path4" />
        <path
           style="stroke-width:3.43159"
           d="M 84.163534,43.742588 C 66.521764,18.753796 37.226334,3.8504277 7.4195936,3.8504277 c -29.7998696,0 -59.1055926,14.9067993 -76.7164816,39.8921603 L -70.202824,45.026 h 22.219498 l 0.23679,-0.267663 c 15.12641,-15.593116 34.86832,-23.849507 55.1661296,-23.849507 20.2978204,0 40.0294304,8.256391 55.1798704,23.849507 l 0.25737,0.267663 h 22.19548 z"
           fill="#cc2131"
           id="path6" />
        <path
           style="fill:#ffffff;fill-opacity:1;stroke-width:3.43159"
           d="m 109.7803,82.677336 -0.2608,0.346591 v 48.766233 l 0.18874,0.29855 c 6.08421,9.40597 15.99804,15.03377 26.52956,15.03377 16.28289,0 24.53926,-13.7229 24.53926,-40.77408 0,-24.182369 -9.14172,-38.028809 -25.08144,-38.028809 -9.6702,-0.0034 -18.38986,4.828236 -25.91532,14.357745 z m 324.98812,71.534794 v 0.32943 h -11.66738 c -0.66228,-1.33832 -24.44316,-51.69338 -24.44316,-51.69338 l -17.75503,24.88928 v 26.80753 H 369.88404 V 30.70257 c 0.96428,-0.552485 8.4177,-4.828238 11.01881,-6.293524 v 89.921214 l 6.02586,-9.35449 c -0.0206,0.0309 27.01687,-39.106331 30.4759,-44.095854 h 12.06545 c -2.56683,3.435016 -23.81861,32.689268 -23.81861,32.689268 0,0 26.36142,54.973966 29.11697,60.642946 z m -219.67624,2.29916 h -4.67725 c -9.49177,-0.54905 -26.58792,-4.95521 -26.58792,-29.4876 0,-21.79398 17.98836,-29.528775 34.83745,-29.528775 8.47256,0 16.82847,1.945706 22.88865,5.353265 l 1.82219,0.99859 V 90.405262 c 0,-14.9068 -7.2784,-22.456283 -21.6739,-22.456283 -8.87408,0 -16.88338,2.227098 -25.08145,6.863167 -0.73779,-1.664319 -3.28403,-7.30241 -3.9875,-8.894664 8.57898,-4.533122 19.1757,-7.0622 29.97147,-7.0622 21.39249,0 31.79704,9.769718 31.79704,29.902822 V 154.54156 H 243.3753 v -13.66113 l -2.13789,2.37122 c -7.53232,8.29414 -16.09069,12.66941 -26.14523,13.25964 z m -75.74878,0 h -4.36155 c -9.11772,-0.56278 -16.57111,-4.52282 -23.32104,-12.33311 l -2.14131,-2.50162 v 12.865 H 98.521284 V 30.699138 C 99.451244,30.146654 106.93552,25.8709 109.5195,24.405614 V 74.51703 l 2.12758,-2.336908 c 8.126,-8.96673 17.10646,-13.32484 27.43894,-13.32484 20.67531,0 32.54515,17.226549 32.54515,47.294088 -0.003,29.6077 -12.61107,49.0991 -32.28777,50.36192 z m 55.27937,-30.39697 c 0,14.01116 7.25782,21.71507 20.44195,21.71507 11.22471,0 21.18659,-5.3018 28.0978,-14.94112 l 0.21278,-0.32943 v -20.5346 l -0.6177,-0.35688 c -7.03818,-4.01152 -14.22733,-5.63466 -24.82408,-5.63466 -14.57735,0.003 -23.31075,7.51173 -23.31075,20.08162 z m 95.73776,-54.078325 c 5.6827,-8.49317 14.59109,-13.180713 25.01966,-13.180713 20.77826,0 31.79707,13.252778 31.79707,38.334222 V 154.54156 H 336.12414 V 99.564161 c 0,-21.334156 -7.41223,-31.248001 -23.45145,-31.248001 -15.37007,0 -24.54955,11.691403 -24.54955,31.248001 V 154.54156 H 277.11118 V 60.879916 h 11.01196 v 14.519031 z"
           fill="#1c4882"
           id="path8" />
      </g>
    </g>
  </g>
</svg>
