<?xml version="1.0" encoding="UTF-8" standalone="no"?>
<svg
   xmlns:dc="http://purl.org/dc/elements/1.1/"
   xmlns:cc="http://creativecommons.org/ns#"
   xmlns:rdf="http://www.w3.org/1999/02/22-rdf-syntax-ns#"
   xmlns:svg="http://www.w3.org/2000/svg"
   xmlns="http://www.w3.org/2000/svg"
   xmlns:sodipodi="http://sodipodi.sourceforge.net/DTD/sodipodi-0.dtd"
   xmlns:inkscape="http://www.inkscape.org/namespaces/inkscape"
   sodipodi:docname="generic_wallet.svg"
   inkscape:version="1.0 (6e3e5246a0, 2020-05-07)"
   id="svg8"
   version="1.1"
   viewBox="0 0 200 200"
   height="200mm"
   width="200mm">
  <defs
     id="defs2" />
  <sodipodi:namedview
     inkscape:window-maximized="1"
     inkscape:window-y="28"
     inkscape:window-x="0"
     inkscape:window-height="1024"
     inkscape:window-width="1920"
     showgrid="false"
     inkscape:document-rotation="0"
     inkscape:current-layer="layer1"
     inkscape:document-units="mm"
     inkscape:cy="344.50376"
     inkscape:cx="679.62888"
     inkscape:zoom="0.49497475"
     inkscape:pageshadow="2"
     inkscape:pageopacity="0.0"
     borderopacity="1.0"
     bordercolor="#666666"
     pagecolor="#ffffff"
     id="base" />
  <metadata
     id="metadata5">
    <rdf:RDF>
      <cc:Work
         rdf:about="">
        <dc:format>image/svg+xml</dc:format>
        <dc:type
           rdf:resource="http://purl.org/dc/dcmitype/StillImage" />
        <dc:title></dc:title>
      </cc:Work>
    </rdf:RDF>
  </metadata>
  <g
     id="layer1"
     inkscape:groupmode="layer"
     inkscape:label="Layer 1">
    <circle
       r="100"
       cy="100"
       cx="100"
       id="path833"
       style="fill:#f5f5f5;fill-opacity:1;stroke-width:0.854044" />
    <g
       transform="matrix(0.26458333,0,0,0.26458333,33.325001,29.77726)"
       id="g106">
      <g
         id="g4">
        <path
           style="fill:#73d14f"
           d="M 441.773,43.762 C 439.703,30.696 427.421,21.758 414.32,23.813 L 54.75,80.715 c -4.125,0.652 -7.055,4.367 -6.727,8.531 0.328,4.16 3.805,7.371 7.977,7.371 l 384.75,-0.125 c 2.344,0 4.563,-1.027 6.086,-2.805 1.516,-1.777 2.18,-4.133 1.813,-6.445 z"
           id="path2" />
      </g>
      <g
         id="g8">
        <path
           style="fill:#9e6459"
           d="M 440,80.481 H 56 c -30.875,0 -56,25.121 -56,56 v 288 c 0,30.879 25.125,56 56,56 h 384 c 30.875,0 56,-25.121 56,-56 v -288 c 0,-30.879 -25.125,-56 -56,-56 z"
           id="path6" />
      </g>
      <g
         id="g12">
        <path
           style="fill:#7e5c62"
           d="m 432,432.481 h -8 c -4.422,0 -8,-3.582 -8,-8 0,-4.418 3.578,-8 8,-8 h 8 c 2.398,-3.719 7.367,-4.785 11.063,-2.395 3.711,2.395 4.789,7.34 2.398,11.055 -2.961,4.598 -7.992,7.34 -13.461,7.34 z"
           id="path10" />
      </g>
      <g
         id="g16">
        <path
           style="fill:#7e5c62"
           d="m 392,432.481 h -16 c -4.422,0 -8,-3.582 -8,-8 0,-4.418 3.578,-8 8,-8 h 16 c 4.422,0 8,3.582 8,8 0,4.418 -3.578,8 -8,8 z"
           id="path14" />
      </g>
      <g
         id="g20">
        <path
           style="fill:#7e5c62"
           d="m 344,432.481 h -16 c -4.422,0 -8,-3.582 -8,-8 0,-4.418 3.578,-8 8,-8 h 16 c 4.422,0 8,3.582 8,8 0,4.418 -3.578,8 -8,8 z"
           id="path18" />
      </g>
      <g
         id="g24">
        <path
           style="fill:#7e5c62"
           d="m 296,432.481 h -16 c -4.422,0 -8,-3.582 -8,-8 0,-4.418 3.578,-8 8,-8 h 16 c 4.422,0 8,3.582 8,8 0,4.418 -3.578,8 -8,8 z"
           id="path22" />
      </g>
      <g
         id="g28">
        <path
           style="fill:#7e5c62"
           d="m 248,432.481 h -16 c -4.422,0 -8,-3.582 -8,-8 0,-4.418 3.578,-8 8,-8 h 16 c 4.422,0 8,3.582 8,8 0,4.418 -3.578,8 -8,8 z"
           id="path26" />
      </g>
      <g
         id="g32">
        <path
           style="fill:#7e5c62"
           d="m 200,432.481 h -16 c -4.422,0 -8,-3.582 -8,-8 0,-4.418 3.578,-8 8,-8 h 16 c 4.422,0 8,3.582 8,8 0,4.418 -3.578,8 -8,8 z"
           id="path30" />
      </g>
      <g
         id="g36">
        <path
           style="fill:#7e5c62"
           d="m 152,432.481 h -16 c -4.422,0 -8,-3.582 -8,-8 0,-4.418 3.578,-8 8,-8 h 16 c 4.422,0 8,3.582 8,8 0,4.418 -3.578,8 -8,8 z"
           id="path34" />
      </g>
      <g
         id="g40">
        <path
           style="fill:#7e5c62"
           d="M 104,432.481 H 88 c -4.422,0 -8,-3.582 -8,-8 0,-4.418 3.578,-8 8,-8 h 16 c 4.422,0 8,3.582 8,8 0,4.418 -3.578,8 -8,8 z"
           id="path38" />
      </g>
      <g
         id="g44">
        <path
           style="fill:#7e5c62"
           d="M 56,432.481 H 40 c -4.422,0 -8,-3.582 -8,-8 0,-4.418 3.578,-8 8,-8 h 16 c 4.422,0 8,3.582 8,8 0,4.418 -3.578,8 -8,8 z"
           id="path42" />
      </g>
      <g
         id="g48">
        <path
           style="fill:#7e5c62"
           d="m 440,397.055 c -4.422,0 -8,-3.582 -8,-8 v -16 c 0,-4.418 3.578,-8 8,-8 4.422,0 8,3.582 8,8 v 16 c 0,4.418 -3.578,8 -8,8 z"
           id="path46" />
      </g>
      <g
         id="g52">
        <path
           style="fill:#5c546a"
           d="m 384,344.481 h 104 c 8.837,0 16,-7.163 16,-16 v -96 c 0,-8.837 -7.163,-16 -16,-16 H 384 c -35.346,0 -64,28.654 -64,64 v 0 c 0,35.346 28.654,64 64,64 z"
           id="path50" />
      </g>
      <g
         id="g56">
        <circle
           style="fill:#ffd100"
           cx="384"
           cy="280.48099"
           r="32"
           id="circle54" />
      </g>
      <g
         id="g60">
        <path
           style="fill:#7e5c62"
           d="m 440,208.481 c -4.422,0 -8,-3.582 -8,-8 v -16 c 0,-4.418 3.578,-8 8,-8 4.422,0 8,3.582 8,8 v 16 c 0,4.418 -3.578,8 -8,8 z"
           id="path58" />
      </g>
      <g
         id="g64">
        <path
           style="fill:#7e5c62"
           d="m 440,160.481 c -4.422,0 -8,-3.582 -8,-8 v -8.004 c -3.711,-2.395 -4.789,-7.348 -2.391,-11.063 2.383,-3.711 7.313,-4.801 11.055,-2.391 4.594,2.961 7.336,7.992 7.336,13.453 v 8.004 c 0,4.419 -3.578,8.001 -8,8.001 z"
           id="path62" />
      </g>
      <g
         id="g68">
        <path
           style="fill:#7e5c62"
           d="m 404.578,144.477 h -16 c -4.422,0 -8,-3.582 -8,-8 0,-4.418 3.578,-8 8,-8 h 16 c 4.422,0 8,3.582 8,8 0,4.418 -3.578,8 -8,8 z"
           id="path66" />
      </g>
      <g
         id="g72">
        <path
           style="fill:#7e5c62"
           d="m 356.578,144.477 h -16 c -4.422,0 -8,-3.582 -8,-8 0,-4.418 3.578,-8 8,-8 h 16 c 4.422,0 8,3.582 8,8 0,4.418 -3.578,8 -8,8 z"
           id="path70" />
      </g>
      <g
         id="g76">
        <path
           style="fill:#7e5c62"
           d="m 308.578,144.477 h -16 c -4.422,0 -8,-3.582 -8,-8 0,-4.418 3.578,-8 8,-8 h 16 c 4.422,0 8,3.582 8,8 0,4.418 -3.578,8 -8,8 z"
           id="path74" />
      </g>
      <g
         id="g80">
        <path
           style="fill:#7e5c62"
           d="m 260.578,144.477 h -16 c -4.422,0 -8,-3.582 -8,-8 0,-4.418 3.578,-8 8,-8 h 16 c 4.422,0 8,3.582 8,8 0,4.418 -3.578,8 -8,8 z"
           id="path78" />
      </g>
      <g
         id="g84">
        <path
           style="fill:#7e5c62"
           d="m 212.578,144.477 h -16 c -4.422,0 -8,-3.582 -8,-8 0,-4.418 3.578,-8 8,-8 h 16 c 4.422,0 8,3.582 8,8 0,4.418 -3.578,8 -8,8 z"
           id="path82" />
      </g>
      <g
         id="g88">
        <path
           style="fill:#7e5c62"
           d="m 164.578,144.477 h -16 c -4.422,0 -8,-3.582 -8,-8 0,-4.418 3.578,-8 8,-8 h 16 c 4.422,0 8,3.582 8,8 0,4.418 -3.578,8 -8,8 z"
           id="path86" />
      </g>
      <g
         id="g92">
        <path
           style="fill:#7e5c62"
           d="m 116.578,144.477 h -16 c -4.422,0 -8,-3.582 -8,-8 0,-4.418 3.578,-8 8,-8 h 16 c 4.422,0 8,3.582 8,8 0,4.418 -3.578,8 -8,8 z"
           id="path90" />
      </g>
      <g
         id="g96">
        <path
           style="fill:#7e5c62"
           d="m 68.578,144.477 h -16 c -4.422,0 -8,-3.582 -8,-8 0,-4.418 3.578,-8 8,-8 h 16 c 4.422,0 8,3.582 8,8 0,4.418 -3.578,8 -8,8 z"
           id="path94" />
      </g>
      <g
         id="g100">
        <path
           style="fill:#7e5c62"
           d="m 20.578,128.477 h -16 c -1.551,0 -2.915,0.557 -4.141,1.32 C 0.175,131.993 0,134.215 0,136.481 v 6.381 c 1.313,0.943 2.837,1.615 4.578,1.615 h 16 c 4.422,0 8,-3.582 8,-8 0,-4.418 -3.578,-8 -8,-8 z"
           id="path98" />
      </g>
      <g
         id="g104">
        <path
           style="fill:#7e5c62"
           d="M 8,416.481 H 0 v 8 c 0,2.723 0.262,5.38 0.639,8 H 8 c 4.422,0 8,-3.582 8,-8 0,-4.418 -3.578,-8 -8,-8 z"
           id="path102" />
      </g>
    </g>
  </g>
</svg>
