<?xml version="1.0" encoding="UTF-8" standalone="no"?>
<svg
   xmlns:dc="http://purl.org/dc/elements/1.1/"
   xmlns:cc="http://creativecommons.org/ns#"
   xmlns:rdf="http://www.w3.org/1999/02/22-rdf-syntax-ns#"
   xmlns:svg="http://www.w3.org/2000/svg"
   xmlns="http://www.w3.org/2000/svg"
   xmlns:sodipodi="http://sodipodi.sourceforge.net/DTD/sodipodi-0.dtd"
   xmlns:inkscape="http://www.inkscape.org/namespaces/inkscape"
   sodipodi:docname="generic_bank.svg"
   inkscape:version="1.0 (6e3e5246a0, 2020-05-07)"
   id="svg8"
   version="1.1"
   viewBox="0 0 200 200"
   height="200mm"
   width="200mm">
  <defs
     id="defs2" />
  <sodipodi:namedview
     inkscape:window-maximized="1"
     inkscape:window-y="28"
     inkscape:window-x="0"
     inkscape:window-height="1024"
     inkscape:window-width="1920"
     showgrid="false"
     inkscape:document-rotation="0"
     inkscape:current-layer="g40"
     inkscape:document-units="mm"
     inkscape:cy="364.94206"
     inkscape:cx="71.680121"
     inkscape:zoom="0.7"
     inkscape:pageshadow="2"
     inkscape:pageopacity="0.0"
     borderopacity="1.0"
     bordercolor="#666666"
     pagecolor="#ffffff"
     id="base" />
  <metadata
     id="metadata5">
    <rdf:RDF>
      <cc:Work
         rdf:about="">
        <dc:format>image/svg+xml</dc:format>
        <dc:type
           rdf:resource="http://purl.org/dc/dcmitype/StillImage" />
        <dc:title />
      </cc:Work>
    </rdf:RDF>
  </metadata>
  <g
     id="layer1"
     inkscape:groupmode="layer"
     inkscape:label="Layer 1">
    <circle
       r="100"
       cy="100"
       cx="100"
       id="path833"
       style="fill:#f5f5f5;fill-opacity:1;stroke-width:0.854044" />
    <g
       id="g40"
       transform="matrix(0.26458333,0,0,0.26458333,32.266668,24.000132)">
      <path
         id="path2"
         d="M 435.52,224 H 76.48 c -4.131,0 -7.48,3.582 -7.48,8 v 208 c 0,4.418 3.349,8 7.48,8 h 359.04 c 4.131,0 7.48,-3.582 7.48,-8 V 232 c 0,-4.418 -3.349,-8 -7.48,-8 z"
         style="fill:#6b7b8b" />
      <g
         id="g12">
        <path
           id="path4"
           d="m 448,232 h -40 c -4.418,0 -8,3.582 -8,8 v 200 c 0,4.418 3.582,8 8,8 h 40 c 4.418,0 8,-3.582 8,-8 V 240 c 0,-4.418 -3.581,-8 -8,-8 z"
           style="fill:#d5d9de" />
        <path
           id="path6"
           d="M 104,232 H 64 c -4.418,0 -8,3.582 -8,8 v 200 c 0,4.418 3.582,8 8,8 h 40 c 4.418,0 8,-3.582 8,-8 V 240 c 0,-4.418 -3.581,-8 -8,-8 z"
           style="fill:#d5d9de" />
        <path
           id="path8"
           d="m 184,232 h -40 c -4.418,0 -8,3.582 -8,8 v 200 c 0,4.418 3.582,8 8,8 h 40 c 4.418,0 8,-3.582 8,-8 V 240 c 0,-4.418 -3.581,-8 -8,-8 z"
           style="fill:#d5d9de" />
        <path
           id="path10"
           d="m 368,232 h -40 c -4.418,0 -8,3.582 -8,8 v 200 c 0,4.418 3.582,8 8,8 h 40 c 4.418,0 8,-3.582 8,-8 V 240 c 0,-4.418 -3.581,-8 -8,-8 z"
           style="fill:#d5d9de" />
      </g>
      <g
         id="g22">
        <path
           id="path14"
           d="m 456,232 c 0,-4.418 -3.582,-8 -8,-8 h -40 c -4.418,0 -8,3.582 -8,8 v 24.5 h 56 z"
           style="fill:#bfc7cd" />
        <path
           id="path16"
           d="m 112,232 c 0,-4.418 -3.582,-8 -8,-8 H 64 c -4.418,0 -8,3.582 -8,8 v 24.5 h 56 z"
           style="fill:#bfc7cd" />
        <path
           id="path18"
           d="m 192,232 c 0,-4.418 -3.582,-8 -8,-8 h -40 c -4.418,0 -8,3.582 -8,8 v 24.5 h 56 z"
           style="fill:#bfc7cd" />
        <path
           id="path20"
           d="m 376,232 c 0,-4.418 -3.582,-8 -8,-8 h -40 c -4.418,0 -8,3.582 -8,8 v 24.5 h 56 z"
           style="fill:#bfc7cd" />
      </g>
      <path
         id="path24"
         d="m 453.535,186.224 -192,-184 c -3.094,-2.966 -7.977,-2.966 -11.07,0 l -192,184 c -2.358,2.26 -3.106,5.728 -1.888,8.759 C 57.795,198.014 60.734,200 64,200 h 384 c 3.267,0 6.205,-1.986 7.423,-5.017 1.218,-3.031 0.471,-6.498 -1.888,-8.759 z"
         style="fill:#d9e0e4;fill-opacity:1" />
      <path
         id="path26"
         d="M 480,184 H 32 c -4.418,0 -8,3.582 -8,8 v 40 c 0,4.418 3.582,8 8,8 h 448 c 4.418,0 8,-3.582 8,-8 v -40 c 0,-4.418 -3.581,-8 -8,-8 z"
         style="fill:#eaecee" />
      <path
         id="path28"
         d="m 48,224 c -4.418,0 -8,-3.582 -8,-8 v -32 h -8 c -4.418,0 -8,3.582 -8,8 v 40 c 0,4.418 3.582,8 8,8 h 448 c 4.418,0 8,-3.582 8,-8 v -8 z"
         style="fill:#d5d9de" />
      <path
         id="path30"
         d="M 472,432 H 40 c -4.418,0 -8,3.582 -8,8 v 64 c 0,4.418 3.582,8 8,8 h 432 c 4.418,0 8,-3.582 8,-8 v -64 c 0,-4.418 -3.581,-8 -8,-8 z"
         style="fill:#eaecee" />
      <path
         id="path32"
         d="M 496,472 H 16 c -4.418,0 -8,3.582 -8,8 v 24 c 0,4.418 3.582,8 8,8 h 480 c 4.418,0 8,-3.582 8,-8 v -24 c 0,-4.418 -3.581,-8 -8,-8 z"
         style="fill:#d5d9de" />
      <path
         id="path34"
         d="m 276.8,324.4 c 4.418,0 8,-3.582 8,-8 v -5.2 c 0,-12.065 -9.103,-22.039 -20.8,-23.428 V 280 c 0,-4.418 -3.582,-8 -8,-8 -4.418,0 -8,3.582 -8,8 v 8.163 c -11.864,2.496 -20.8,13.041 -20.8,25.637 0,14.447 11.753,26.2 26.2,26.2 h 5.2 c 5.624,0 10.2,4.576 10.2,10.2 0,5.624 -4.576,10.2 -10.2,10.2 h -7.8 c -4.19,0 -7.6,-3.409 -7.6,-7.6 0,-4.418 -3.582,-8 -8,-8 -4.418,0 -8,3.582 -8,8 0,12.065 9.103,22.039 20.8,23.428 V 384 c 0,4.418 3.582,8 8,8 4.418,0 8,-3.582 8,-8 v -8.163 c 11.864,-2.496 20.8,-13.041 20.8,-25.637 0,-14.447 -11.753,-26.2 -26.2,-26.2 h -5.2 c -5.624,0 -10.2,-4.576 -10.2,-10.2 0,-5.624 4.576,-10.2 10.2,-10.2 h 7.8 c 4.19,0 7.6,3.409 7.6,7.6 v 5.2 c 0,4.419 3.581,8 8,8 z"
         style="fill:#ffffff" />
      <g
         id="g38">
        <circle
           id="circle36"
           r="40"
           cy="104"
           cx="256"
           style="fill:#49dfe5" />
      </g>
    </g>
  </g>
</svg>
