<?xml version="1.0" encoding="UTF-8" standalone="no"?>
<svg
   xmlns:dc="http://purl.org/dc/elements/1.1/"
   xmlns:cc="http://creativecommons.org/ns#"
   xmlns:rdf="http://www.w3.org/1999/02/22-rdf-syntax-ns#"
   xmlns:svg="http://www.w3.org/2000/svg"
   xmlns="http://www.w3.org/2000/svg"
   xmlns:sodipodi="http://sodipodi.sourceforge.net/DTD/sodipodi-0.dtd"
   xmlns:inkscape="http://www.inkscape.org/namespaces/inkscape"
   sodipodi:docname="generic_savings.svg"
   inkscape:version="1.0 (6e3e5246a0, 2020-05-07)"
   id="svg8"
   version="1.1"
   viewBox="0 0 200 200"
   height="200mm"
   width="200mm">
  <defs
     id="defs2" />
  <sodipodi:namedview
     inkscape:window-maximized="1"
     inkscape:window-y="28"
     inkscape:window-x="0"
     inkscape:window-height="1024"
     inkscape:window-width="1920"
     showgrid="false"
     inkscape:document-rotation="0"
     inkscape:current-layer="layer1"
     inkscape:document-units="mm"
     inkscape:cy="344.50376"
     inkscape:cx="679.62888"
     inkscape:zoom="0.49497475"
     inkscape:pageshadow="2"
     inkscape:pageopacity="0.0"
     borderopacity="1.0"
     bordercolor="#666666"
     pagecolor="#ffffff"
     id="base" />
  <metadata
     id="metadata5">
    <rdf:RDF>
      <cc:Work
         rdf:about="">
        <dc:format>image/svg+xml</dc:format>
        <dc:type
           rdf:resource="http://purl.org/dc/dcmitype/StillImage" />
        <dc:title></dc:title>
      </cc:Work>
    </rdf:RDF>
  </metadata>
  <g
     id="layer1"
     inkscape:groupmode="layer"
     inkscape:label="Layer 1">
    <circle
       r="100"
       cy="100"
       cx="100"
       id="path833"
       style="fill:#f5f5f5;fill-opacity:1;stroke-width:0.854044" />
    <g
       transform="matrix(2.1682513,0,0,2.1682513,37.119628,37.121642)"
       id="g80">
      <rect
         x="29"
         y="3.0829999"
         style="fill:#b5c3c6"
         width="8"
         height="52"
         id="rect2" />
      <g
         id="g8">
        <path
           style="fill:#b6c8cc"
           d="M 29,6.083 H 0.944 C 0.422,6.083 0,6.506 0,7.027 V 51.14 c 0,0.521 0.422,0.944 0.944,0.944 H 29 Z"
           id="path4" />
        <path
           style="fill:#b6c8cc"
           d="m 45.889,6.083 7.111,4 v 38 l -7.111,4 h 11.168 c 0.521,0 0.944,-0.422 0.944,-0.944 V 7.027 c 0,-0.521 -0.422,-0.944 -0.944,-0.944 z"
           id="path6" />
      </g>
      <path
         style="fill:#e3e9ec"
         d="m 37,1.201 v 55.598 c 0,0.09 0.097,0.146 0.175,0.102 L 53,48 V 10 L 37.175,1.098 C 37.097,1.054 37,1.111 37,1.201 Z"
         id="path10" />
      <path
         style="fill:#556080"
         d="M 29,10.083 H 5.345 C 4.602,10.083 4,10.686 4,11.429 v 35.309 c 0,0.743 0.602,1.345 1.345,1.345 H 29 Z"
         id="path12" />
      <g
         id="g22">
        <path
           style="fill:#a3b8be"
           d="m 52,16.083 h 3 c 0.553,0 1,-0.447 1,-1 0,-0.553 -0.447,-1 -1,-1 h -3 c -0.553,0 -1,0.447 -1,1 0,0.553 0.447,1 1,1 z"
           id="path14" />
        <path
           style="fill:#a3b8be"
           d="m 55,17.083 h -3 c -0.553,0 -1,0.447 -1,1 0,0.553 0.447,1 1,1 h 3 c 0.553,0 1,-0.447 1,-1 0,-0.553 -0.447,-1 -1,-1 z"
           id="path16" />
        <path
           style="fill:#a3b8be"
           d="m 55,39.083 h -3 c -0.553,0 -1,0.447 -1,1 0,0.553 0.447,1 1,1 h 3 c 0.553,0 1,-0.447 1,-1 0,-0.553 -0.447,-1 -1,-1 z"
           id="path18" />
        <path
           style="fill:#a3b8be"
           d="m 55,42.083 h -3 c -0.553,0 -1,0.447 -1,1 0,0.553 0.447,1 1,1 h 3 c 0.553,0 1,-0.447 1,-1 0,-0.553 -0.447,-1 -1,-1 z"
           id="path20" />
      </g>
      <rect
         x="2"
         y="52.083"
         style="fill:#556080"
         width="8"
         height="4"
         id="rect24" />
      <rect
         x="48"
         y="52.083"
         style="fill:#556080"
         width="8"
         height="4"
         id="rect26" />
      <g
         id="g40">
        <circle
           style="fill:#556080"
           cx="33"
           cy="6"
           r="1"
           id="circle28" />
        <circle
           style="fill:#556080"
           cx="33"
           cy="12"
           r="1"
           id="circle30" />
        <circle
           style="fill:#556080"
           cx="33"
           cy="46"
           r="1"
           id="circle32" />
        <circle
           style="fill:#556080"
           cx="33"
           cy="40"
           r="1"
           id="circle34" />
        <circle
           style="fill:#556080"
           cx="33"
           cy="18"
           r="1"
           id="circle36" />
        <circle
           style="fill:#556080"
           cx="33"
           cy="52"
           r="1"
           id="circle38" />
      </g>
      <path
         style="fill:#b5c3c6"
         d="m 40,19 v 4 c 1.66,0 3.011,1.351 3.011,3.011 V 31.99 C 43.011,33.649 41.66,35 40,35 v 4 c 3.866,0 7.011,-3.145 7.011,-7.011 V 26.01 C 47.011,22.144 43.866,19 40,19 Z"
         id="path42" />
      <path
         style="fill:#cfe1e5"
         d="M 41.063,20.583 H 40.225 V 20.555 H 40 v 1.028 h 1.063 c 1.62,0 3.937,1.888 3.937,3.507 v 7.818 c 0,1.62 -2.318,3.656 -3.937,3.656 H 40 v 0.987 h 1.195 C 43.304,37.48 46,35.035 46,32.909 v -7.818 c 0,-2.171 -2.766,-4.508 -4.937,-4.508 z"
         id="path44" />
      <rect
         x="8"
         y="36.083"
         style="fill:#71c285"
         width="18"
         height="12"
         id="rect46" />
      <rect
         x="8"
         y="44.083"
         style="fill:#4c8056"
         width="6"
         height="2"
         id="rect48" />
      <rect
         x="8"
         y="41.083"
         style="fill:#4c8056"
         width="6"
         height="2"
         id="rect50" />
      <rect
         x="8"
         y="38.083"
         style="fill:#4c8056"
         width="6"
         height="2"
         id="rect52" />
      <rect
         x="20"
         y="44.083"
         style="fill:#4c8056"
         width="6"
         height="2"
         id="rect54" />
      <rect
         x="20"
         y="41.083"
         style="fill:#4c8056"
         width="6"
         height="2"
         id="rect56" />
      <rect
         x="20"
         y="38.083"
         style="fill:#4c8056"
         width="6"
         height="2"
         id="rect58" />
      <rect
         x="14"
         y="36.083"
         style="fill:#d1d4d1"
         width="6"
         height="12"
         id="rect60" />
      <rect
         x="8"
         y="17.083"
         style="fill:#71c285"
         width="18"
         height="12"
         id="rect62" />
      <rect
         x="8"
         y="25.083"
         style="fill:#4c8056"
         width="6"
         height="2"
         id="rect64" />
      <rect
         x="8"
         y="22.083"
         style="fill:#4c8056"
         width="6"
         height="2"
         id="rect66" />
      <rect
         x="8"
         y="19.083"
         style="fill:#4c8056"
         width="6"
         height="2"
         id="rect68" />
      <rect
         x="20"
         y="25.083"
         style="fill:#4c8056"
         width="6"
         height="2"
         id="rect70" />
      <rect
         x="20"
         y="22.083"
         style="fill:#4c8056"
         width="6"
         height="2"
         id="rect72" />
      <rect
         x="20"
         y="19.083"
         style="fill:#4c8056"
         width="6"
         height="2"
         id="rect74" />
      <rect
         x="14"
         y="17.083"
         style="fill:#d1d4d1"
         width="6"
         height="12"
         id="rect76" />
      <rect
         x="4"
         y="29.083"
         style="fill:#b5c3c6"
         width="25"
         height="2"
         id="rect78" />
    </g>
  </g>
</svg>
