<?xml version="1.0" encoding="UTF-8" standalone="no"?>
<svg
   xmlns:dc="http://purl.org/dc/elements/1.1/"
   xmlns:cc="http://creativecommons.org/ns#"
   xmlns:rdf="http://www.w3.org/1999/02/22-rdf-syntax-ns#"
   xmlns:svg="http://www.w3.org/2000/svg"
   xmlns="http://www.w3.org/2000/svg"
   xmlns:sodipodi="http://sodipodi.sourceforge.net/DTD/sodipodi-0.dtd"
   xmlns:inkscape="http://www.inkscape.org/namespaces/inkscape"
   width="200mm"
   height="200mm"
   viewBox="0 0 200 200"
   version="1.1"
   id="svg8"
   inkscape:version="1.0 (6e3e5246a0, 2020-05-07)"
   sodipodi:docname="itau.svg">
  <defs
     id="defs2">
    <clipPath
       clipPathUnits="userSpaceOnUse"
       id="clipPath34">
      <path
         d="M -39.360001,-7.04 V 39.200001 H 98.879997 V -7.04 Z"
         id="path32"
         inkscape:connector-curvature="0"
         style="clip-rule:evenodd" />
    </clipPath>
    <clipPath
       clipPathUnits="userSpaceOnUse"
       id="clipPath44">
      <path
         d="M 91.040001,82.879997 H 229.28 V 129.11999 H 91.040001 Z"
         id="path42"
         inkscape:connector-curvature="0"
         style="clip-rule:evenodd" />
    </clipPath>
  </defs>
  <sodipodi:namedview
     id="base"
     pagecolor="#ffffff"
     bordercolor="#666666"
     borderopacity="1.0"
     inkscape:pageopacity="0.0"
     inkscape:pageshadow="2"
     inkscape:zoom="0.24748738"
     inkscape:cx="-829.31312"
     inkscape:cy="1093.6991"
     inkscape:document-units="mm"
     inkscape:current-layer="layer1"
     inkscape:document-rotation="0"
     showgrid="false"
     inkscape:window-width="1920"
     inkscape:window-height="1024"
     inkscape:window-x="0"
     inkscape:window-y="28"
     inkscape:window-maximized="1" />
  <metadata
     id="metadata5">
    <rdf:RDF>
      <cc:Work
         rdf:about="">
        <dc:format>image/svg+xml</dc:format>
        <dc:type
           rdf:resource="http://purl.org/dc/dcmitype/StillImage" />
        <dc:title></dc:title>
      </cc:Work>
    </rdf:RDF>
  </metadata>
  <g
     inkscape:label="Layer 1"
     inkscape:groupmode="layer"
     id="layer1">
    <circle
       style="fill:#1a5493;fill-opacity:1;stroke-width:0.854044"
       id="path833"
       cx="100.1"
       cy="100"
       r="100" />
    <g
       transform="matrix(2.1054071,0,0,2.1054071,-10.191388,-167.8509)"
       id="g1126">
      <path
         id="path9"
         fill="#fff212"
         fill-rule="evenodd"
         d="m 17.068692,141.24906 h 6.589672 v -28.5836 h -6.589672 z"
         style="stroke-width:0.250721" />
      <path
         id="path11"
         fill="#fff212"
         fill-rule="evenodd"
         d="m 53.185878,119.2025 h -0.376409 l -0.371425,0.0126 -0.36644,0.0151 -0.353976,0.0227 -0.348988,0.0202 -0.344006,0.0328 -0.339018,0.0378 -0.334031,0.0378 -0.324062,0.0479 -0.316585,0.0479 -0.314089,0.053 -0.306612,0.058 -0.296643,0.0605 -0.291656,0.063 -0.286668,0.0706 -0.279194,0.0706 -0.271713,0.0731 -0.264235,0.0756 -0.254264,0.0807 -0.249277,0.0807 -0.244293,0.0807 -0.231828,0.0857 -0.226845,0.0857 -0.219364,0.0908 -0.211886,0.0857 -0.204409,0.0908 -0.19693,0.0908 -0.191944,0.0908 -0.17948,0.0908 -0.174496,0.0908 -0.164523,0.0933 -0.159538,0.0908 1.241406,4.21126 0.142089,-0.0857 0.149567,-0.0857 0.152058,-0.0857 0.159539,-0.0807 0.164523,-0.0807 0.169511,-0.0807 0.174495,-0.0807 0.17948,-0.0731 0.186957,-0.0756 0.189452,-0.0756 0.191945,-0.0757 0.194437,-0.0681 0.196929,-0.0656 0.201917,-0.0681 0.204407,-0.0656 0.206901,-0.058 0.211887,-0.0605 0.211886,-0.053 0.216873,-0.053 0.211887,-0.0479 0.219366,-0.0479 0.221856,-0.0429 0.216873,-0.0378 0.221856,-0.0378 0.216874,-0.0328 0.22435,-0.0252 0.221856,-0.0277 0.216874,-0.0151 0.221858,-0.0176 0.216871,-0.0151 0.224351,-0.005 h 0.216871 l 0.348991,0.005 0.339018,0.0151 0.316582,0.0277 0.296643,0.0328 0.286671,0.0479 0.271711,0.053 0.254265,0.063 0.236815,0.0706 0.229336,0.0807 0.211886,0.0857 0.194437,0.0908 0.17948,0.0958 0.169511,0.10339 0.159538,0.10591 0.149566,0.11348 0.132117,0.11096 0.122148,0.11852 0.114668,0.12356 0.102203,0.11852 0.08974,0.12357 0.07977,0.1286 0.07478,0.12357 0.06232,0.12104 0.05733,0.12356 0.04986,0.12357 0.0349,0.11852 0.03241,0.11852 0.02742,0.11095 0.01995,0.11348 0.01246,0.10591 0.01,0.10339 v 0.0958 0.22948 l -0.790213,0.008 -0.772763,0.0202 -0.752819,0.0378 -0.730385,0.053 -0.710443,0.0706 -0.68801,0.0908 -0.673052,0.10087 -0.645631,0.12356 -0.625687,0.13365 -0.598267,0.15635 -0.583311,0.17147 -0.555893,0.18661 -0.52847,0.20426 -0.508527,0.21939 -0.488585,0.23704 -0.461166,0.25217 -0.433745,0.2673 -0.408815,0.28243 -0.386382,0.30009 -0.353975,0.32278 -0.334032,0.33211 -0.301627,0.34824 -0.276699,0.36969 -0.254264,0.38052 -0.216871,0.39642 -0.194438,0.4181 -0.164524,0.42869 -0.132117,0.45012 -0.10719,0.46072 -0.07977,0.47711 -0.04238,0.49829 -0.01496,0.50913 0.005,0.30538 0.01994,0.30538 0.03739,0.30538 0.05484,0.30008 0.06731,0.30009 0.07977,0.30008 0.09473,0.29479 0.112175,0.28949 0.122146,0.28394 0.142089,0.27865 0.154551,0.27336 0.164523,0.2678 0.179483,0.26251 0.196929,0.25192 0.211887,0.24663 0.221858,0.23578 0.236813,0.22493 0.24928,0.21435 0.266726,0.20375 0.274206,0.19292 0.291656,0.18206 0.306612,0.17148 0.319077,0.15534 0.334034,0.13944 0.344003,0.12861 0.353976,0.11247 0.376409,0.0966 0.381397,0.0802 0.396351,0.0643 0.408816,0.0484 0.423775,0.0267 0.433745,0.0106 0.264234,-0.005 0.261741,-0.0106 0.254265,-0.0109 0.254265,-0.0214 0.246784,-0.0267 0.249278,-0.0323 0.244292,-0.0373 0.244292,-0.0429 0.236816,-0.0537 0.234323,-0.0535 0.231828,-0.059 0.229335,-0.0643 0.221859,-0.0696 0.221858,-0.0751 0.216871,-0.0857 0.211886,-0.0857 0.206902,-0.091 0.206901,-0.0966 0.201914,-0.0963 0.19693,-0.10717 0.189452,-0.11247 0.184468,-0.11272 0.186957,-0.12306 0.174495,-0.12331 0.174496,-0.12861 0.169507,-0.1339 0.164524,-0.13945 0.154553,-0.14475 0.152059,-0.14449 0.149569,-0.15004 0.142087,-0.15559 0.137104,-0.16064 h 0.07478 l 0.720415,2.2239 h 5.361972 v -12.66836 l -0.0075,-0.48164 -0.02492,-0.47156 -0.03739,-0.46652 -0.05235,-0.46147 -0.0698,-0.45391 -0.08974,-0.44635 -0.09971,-0.43373 -0.122176,-0.42365 -0.144582,-0.41608 -0.152061,-0.40347 -0.181972,-0.39087 -0.194437,-0.38078 -0.216871,-0.36817 -0.234323,-0.35556 -0.25925,-0.34295 -0.274206,-0.3253 -0.29664,-0.31269 -0.324062,-0.29252 -0.344006,-0.27991 -0.366437,-0.26226 -0.386382,-0.24713 -0.413803,-0.22443 -0.433744,-0.2093 -0.461164,-0.18661 -0.481108,-0.17148 -0.513514,-0.14626 -0.535948,-0.1286 -0.560877,-0.10592 -0.588295,-0.0807 -0.615717,-0.058 -0.640647,-0.0378 z m 3.759118,14.14251 v 0.12861 l -0.005,0.1339 -0.01,0.13391 -0.01,0.13945 -0.01746,0.1339 -0.01495,0.13945 -0.02244,0.1339 -0.02991,0.13391 -0.01246,0.0482 -0.01995,0.0699 -0.01495,0.0643 -0.01746,0.0429 -0.01995,0.0535 -0.02244,0.0537 -0.05733,0.1339 -0.06481,0.12861 -0.06731,0.1286 -0.07478,0.12861 -0.07977,0.12331 -0.08475,0.12861 -0.08974,0.12306 -0.09473,0.11801 -0.102203,0.11777 -0.09971,0.11801 -0.112176,0.11247 -0.114667,0.11247 -0.117161,0.10717 -0.122147,0.10188 -0.132117,0.10188 -0.132117,0.0963 -0.139597,0.0913 -0.137102,0.091 -0.147076,0.0804 -0.149567,0.0802 -0.152058,0.0752 -0.159539,0.0643 -0.159538,0.0643 -0.169508,0.059 -0.169511,0.0482 -0.169508,0.0482 -0.179483,0.0376 -0.17948,0.032 -0.181972,0.027 -0.189452,0.0159 -0.191942,0.0161 h -0.189453 -0.16951 l -0.164523,-0.0106 -0.159539,-0.0108 -0.159538,-0.0214 -0.152059,-0.0267 -0.149566,-0.0267 -0.147074,-0.0376 -0.144582,-0.0429 -0.132117,-0.0429 -0.137104,-0.0537 -0.127133,-0.0588 -0.122144,-0.0643 -0.122148,-0.0643 -0.109683,-0.0752 -0.112175,-0.0804 -0.09971,-0.0802 -0.102204,-0.0913 -0.08974,-0.0963 -0.08974,-0.0966 -0.07977,-0.10717 -0.07478,-0.11247 -0.07229,-0.11247 -0.06481,-0.12331 -0.05733,-0.12331 -0.04736,-0.12861 -0.04736,-0.1392 -0.03739,-0.13945 -0.03241,-0.1445 -0.02742,-0.15558 -0.01495,-0.15534 -0.01,-0.16064 -0.005,-0.16618 0.005,-0.18761 0.01495,-0.17677 0.02742,-0.17678 0.02991,-0.17147 0.04238,-0.16089 0.05484,-0.16063 0.06232,-0.15004 0.0698,-0.15004 0.07977,-0.14475 0.08476,-0.1339 0.09472,-0.13416 0.104698,-0.12861 0.112175,-0.12305 0.122145,-0.11273 0.127133,-0.11246 0.137104,-0.10718 0.144582,-0.10717 0.147073,-0.0963 0.159539,-0.0913 0.164523,-0.091 0.169508,-0.0857 0.17948,-0.0804 0.179483,-0.0749 0.191942,-0.0696 0.199424,-0.0699 0.201914,-0.0588 0.206902,-0.059 0.216871,-0.059 0.216874,-0.0482 0.229335,-0.0482 0.226843,-0.0429 0.239308,-0.0376 0.221858,-0.0323 0.231828,-0.032 0.234321,-0.0267 0.244295,-0.027 0.2418,-0.0159 0.254262,-0.0214 0.254264,-0.0108 0.261742,-0.0106 0.157046,-0.006 0.159539,-0.005 0.164523,-0.005 h 0.159538 0.164523 0.162031 0.164524 0.16951 z"
         style="stroke-width:0.250721" />
      <path
         id="path13"
         fill="#fff212"
         fill-rule="evenodd"
         d="m 81.174847,119.8304 v 12.55535 0.18762 l -0.01,0.18207 -0.01744,0.17702 -0.02492,0.17148 -0.02742,0.17147 -0.03739,0.16064 -0.04736,0.16088 -0.05734,0.15004 -0.04736,0.12306 -0.05983,0.12331 -0.06232,0.12332 -0.06481,0.12331 -0.06731,0.11776 -0.07478,0.12331 -0.07977,0.12332 -0.08475,0.11776 -0.08974,0.11802 -0.08974,0.11776 -0.102206,0.11802 -0.09971,0.11246 -0.104695,0.10718 -0.112176,0.10717 -0.117162,0.10188 -0.122145,0.10162 -0.127133,0.0966 -0.127132,0.0963 -0.137102,0.0857 -0.137104,0.0857 -0.149566,0.0752 -0.147074,0.0749 -0.154554,0.0699 -0.159539,0.0588 -0.16203,0.059 -0.169508,0.0482 -0.176988,0.0429 -0.17948,0.0323 -0.17948,0.032 -0.191945,0.0161 -0.189452,0.0161 h -0.201914 l -0.244293,-0.005 -0.236815,-0.0161 -0.234323,-0.0267 -0.221856,-0.0429 -0.211886,-0.0484 -0.206902,-0.0643 -0.194437,-0.0749 -0.186959,-0.0857 -0.179481,-0.091 -0.169507,-0.10717 -0.164526,-0.11802 -0.154551,-0.1286 -0.14209,-0.13391 -0.142089,-0.15004 -0.127132,-0.15534 -0.122145,-0.16618 -0.11716,-0.17677 -0.104698,-0.18762 -0.09722,-0.1982 -0.09473,-0.20376 -0.07977,-0.21434 -0.07977,-0.22494 -0.0673,-0.23578 -0.05983,-0.24133 -0.05235,-0.25166 -0.04736,-0.25722 -0.03739,-0.26806 -0.03241,-0.27864 -0.02492,-0.28395 -0.01746,-0.29479 -0.01,-0.30008 -0.005,-0.31068 v -11.33308 h -6.431306 v 12.52256 0.31623 l 0.01,0.30538 0.01246,0.29478 0.01495,0.29479 0.02244,0.28924 0.02492,0.28395 0.03241,0.27335 0.03241,0.27335 0.04237,0.26251 0.04238,0.25722 0.04736,0.25192 0.05733,0.24637 0.05983,0.24133 0.06232,0.23578 0.06481,0.23023 0.07229,0.21989 0.07478,0.21964 0.08475,0.21435 0.07977,0.20905 0.08974,0.2035 0.08974,0.19821 0.08974,0.19291 0.102203,0.18761 0.09971,0.18762 0.09971,0.17677 0.107188,0.17677 0.112176,0.17148 0.114667,0.16089 0.117163,0.16063 0.122145,0.15559 0.122148,0.15004 0.127132,0.14449 0.132117,0.14475 0.137102,0.1339 0.137104,0.13416 0.139594,0.12306 0.147074,0.12331 0.144582,0.11802 0.152061,0.11246 0.154551,0.10718 0.159539,0.10187 0.157046,0.0963 0.164523,0.091 0.164523,0.0913 0.169511,0.0802 0.174495,0.0804 0.174493,0.0696 0.181975,0.0699 0.184465,0.0643 0.17948,0.0588 0.191945,0.059 0.184465,0.0482 0.196932,0.0484 0.189449,0.0429 0.196932,0.0429 0.201914,0.032 0.199422,0.0323 0.201917,0.0267 0.206901,0.0214 0.206899,0.0214 0.211889,0.0161 0.211886,0.005 0.216871,0.0106 h 0.216874 0.191942 l 0.184468,-0.005 0.17948,-0.005 0.17948,-0.0109 0.181972,-0.0159 0.174496,-0.0161 0.174495,-0.0161 0.169508,-0.0267 0.164526,-0.0214 0.164523,-0.0323 0.164523,-0.0267 0.157046,-0.0376 0.154551,-0.032 0.154554,-0.0429 0.152059,-0.0429 0.149566,-0.0429 0.284178,-0.0966 0.281684,-0.10162 0.264237,-0.10718 0.259249,-0.10717 0.249277,-0.11801 0.239308,-0.11777 0.226843,-0.1286 0.216871,-0.12861 0.206901,-0.13416 0.201917,-0.1339 0.191945,-0.1392 0.184465,-0.13945 0.174495,-0.14475 0.164523,-0.15004 0.154554,-0.15004 0.147074,-0.15534 0.142089,-0.15004 0.134609,-0.15004 0.119653,-0.14475 0.11716,-0.1392 0.112176,-0.1339 0.09971,-0.13415 0.08974,-0.12306 0.08475,-0.12861 0.827606,3.0437 h 5.22238 V 119.8304 Z"
         style="stroke-width:0.250721" />
      <path
         id="path15"
         fill="#fff212"
         fill-rule="evenodd"
         d="m 29.840217,112.66622 v 7.1541 h -3.003554 v 4.88203 h 3.003554 v 8.71226 l 0.0052,0.26806 0.0052,0.26251 0.0055,0.26251 0.01047,0.25192 0.01595,0.25192 0.02119,0.24637 0.02119,0.24107 0.02642,0.24133 0.02642,0.23024 0.03191,0.23048 0.03714,0.22519 0.04238,0.21964 0.04238,0.21434 0.04761,0.21435 0.04761,0.2035 0.0531,0.20376 0.05808,0.1982 0.06357,0.19291 0.06357,0.18762 0.06905,0.18207 0.07404,0.18232 0.07428,0.17147 0.07927,0.17148 0.08475,0.16063 0.08476,0.16089 0.09024,0.15534 0.09522,0.15004 0.100709,0.15004 0.100708,0.13945 0.105943,0.1339 0.111178,0.13391 0.111178,0.12331 0.105944,0.10717 0.105943,0.10717 0.111178,0.10188 0.111428,0.10163 0.121647,0.0966 0.121897,0.0963 0.132367,0.0966 0.132616,0.091 0.132367,0.091 0.143086,0.0857 0.142836,0.0804 0.148321,0.0857 0.153805,0.0752 0.153555,0.0749 0.164274,0.0751 0.158791,0.0643 0.169509,0.0696 0.169509,0.059 0.174744,0.0588 0.174994,0.0537 0.179979,0.0535 0.185463,0.0429 0.185213,0.0429 0.191945,0.0376 0.189451,0.0376 0.19693,0.032 0.194437,0.0214 0.201916,0.0214 0.201915,0.0214 0.206901,0.0109 0.206901,0.005 0.211887,0.005 0.348989,-0.005 0.321569,-0.0106 0.30412,-0.0161 0.274206,-0.0214 0.259249,-0.0267 0.239308,-0.0323 0.226843,-0.0376 0.206901,-0.0429 0.201915,-0.0429 0.184466,-0.0482 0.174495,-0.0535 0.174495,-0.0537 0.329047,-0.11777 0.324062,-0.12331 v -4.97811 l -0.08475,0.032 -0.112175,0.0323 -0.132117,0.032 -0.164524,0.0267 -0.184466,0.027 -0.206901,0.0159 -0.221858,0.0161 -0.239307,0.005 -0.211886,-0.005 -0.19693,-0.0106 -0.189452,-0.0214 -0.17948,-0.0323 -0.169509,-0.0376 -0.159539,-0.0429 -0.154552,-0.0535 -0.142089,-0.0643 -0.132117,-0.0696 -0.127132,-0.0752 -0.122146,-0.091 -0.10719,-0.091 -0.104697,-0.10188 -0.09473,-0.10717 -0.08974,-0.11802 -0.07977,-0.12861 -0.07478,-0.1286 -0.0698,-0.1445 -0.06232,-0.14474 -0.05983,-0.15534 -0.04736,-0.16618 -0.04736,-0.16618 -0.03739,-0.18207 -0.03739,-0.18232 -0.02493,-0.19291 -0.02742,-0.2035 -0.01994,-0.20376 -0.01745,-0.21434 -0.01,-0.22494 -0.01,-0.22519 -0.005,-0.23578 v -0.24107 -7.59237 h 4.088165 v -4.88207 h -4.088046 v -7.1541 z"
         style="stroke-width:0.250721" />
      <path
         id="path17"
         fill="#fff212"
         fill-rule="evenodd"
         d="m 78.744385,112.66118 -3.973497,5.77724 h 4.596691 l 5.601285,-5.77724 z"
         style="stroke-width:0.250721" />
    </g>
  </g>
</svg>
