<?xml version="1.0" encoding="UTF-8" standalone="no"?>
<svg
   xmlns:dc="http://purl.org/dc/elements/1.1/"
   xmlns:cc="http://creativecommons.org/ns#"
   xmlns:rdf="http://www.w3.org/1999/02/22-rdf-syntax-ns#"
   xmlns:svg="http://www.w3.org/2000/svg"
   xmlns="http://www.w3.org/2000/svg"
   xmlns:sodipodi="http://sodipodi.sourceforge.net/DTD/sodipodi-0.dtd"
   xmlns:inkscape="http://www.inkscape.org/namespaces/inkscape"
   sodipodi:docname="nubank.svg"
   inkscape:version="1.0 (6e3e5246a0, 2020-05-07)"
   id="svg8"
   version="1.1"
   viewBox="0 0 200 200"
   height="200mm"
   width="200mm">
  <defs
     id="defs2" />
  <sodipodi:namedview
     inkscape:window-maximized="1"
     inkscape:window-y="28"
     inkscape:window-x="0"
     inkscape:window-height="1024"
     inkscape:window-width="1920"
     showgrid="false"
     inkscape:document-rotation="0"
     inkscape:current-layer="layer1"
     inkscape:document-units="mm"
     inkscape:cy="850.61423"
     inkscape:cx="1104.9548"
     inkscape:zoom="0.5"
     inkscape:pageshadow="2"
     inkscape:pageopacity="0.0"
     borderopacity="1.0"
     bordercolor="#666666"
     pagecolor="#ffffff"
     id="base" />
  <metadata
     id="metadata5">
    <rdf:RDF>
      <cc:Work
         rdf:about="">
        <dc:format>image/svg+xml</dc:format>
        <dc:type
           rdf:resource="http://purl.org/dc/dcmitype/StillImage" />
        <dc:title></dc:title>
      </cc:Work>
    </rdf:RDF>
  </metadata>
  <g
     id="layer1"
     inkscape:groupmode="layer"
     inkscape:label="Layer 1">
    <path
       d="M 99.999753,7.812865 A 92.187185,92.187185 0 0 0 7.8126042,100 92.187185,92.187185 0 0 0 99.999753,192.18713 92.187185,92.187185 0 0 0 192.1874,100 92.187185,92.187185 0 0 0 99.999753,7.812865 Z m -33.233628,51.56946 c 2.011283,-8.6e-4 2.955475,0.0904 4.846214,0.46974 5.618344,1.12706 11.178224,4.06276 15.009414,7.9251 3.38595,3.41348 5.30125,7.17621 5.89523,11.58069 0.10859,0.8087 0.11473,1.96135 0.11473,23.946335 v 23.09626 l -0.13952,0.44028 c -0.41965,1.32451 -1.53966,2.381 -2.84996,2.68821 -0.2686,0.063 -1.57212,0.0811 -5.82083,0.0811 -5.04899,0 -5.50685,-0.009 -5.87976,-0.11163 -0.61661,-0.17027 -1.23351,-0.53074 -1.698593,-0.99218 -0.474742,-0.47102 -0.760042,-0.92173 -1.000972,-1.58129 l -0.16846,-0.46147 -0.03307,-21.49172 -0.03307,-21.491715 -0.132291,-0.56637 c -0.1778,-0.76116 -0.426932,-1.46872 -0.7307,-2.07688 -0.982504,-1.96701 -2.734443,-3.51145 -4.740805,-4.17855 -1.256929,-0.41787 -1.050872,-0.40325 -6.145371,-0.42995 l -4.640527,-0.0243 -0.01707,25.066685 c -0.01609,23.44363 -0.02442,25.0892 -0.125042,25.41292 -0.436721,1.40464 -1.490821,2.45412 -2.823607,2.8112 v -5.2e-4 c -0.363035,0.0973 -0.922046,0.10902 -5.68907,0.12092 -2.90748,0.007 -5.454597,-0.0116 -5.660628,-0.0424 -1.230365,-0.18417 -2.317538,-0.97429 -2.85668,-2.07533 -0.493289,-1.00739 -0.450611,1.17611 -0.450611,-22.81618 0,-21.297235 0.0018,-21.543505 0.127132,-22.276675 0.16084,-0.94083 0.517366,-2.00996 0.976683,-2.92696 1.57435,-3.14319 4.586525,-5.75315 7.623307,-6.60528 0.938794,-0.26342 1.464363,-0.31109 3.429766,-0.31109 h 1.867588 l 0.02685,-2.62775 c 0.02413,-2.38127 0.03884,-2.68027 0.157613,-3.1936 0.92149,-3.98278 3.947689,-6.45389 8.837718,-7.21661 0.776076,-0.12102 1.150144,-0.14036 2.724388,-0.14108 z m 0.06665,3.65249 c -0.818515,-0.004 -1.574933,0.0322 -2.174531,0.11214 -3.470593,0.46264 -5.44666,1.97583 -5.951591,4.55838 -0.06789,0.34723 -0.09043,1.00674 -0.09043,2.65875 v 2.19728 l 4.578535,0.001 c 4.924214,0.001 5.209778,0.0162 6.489515,0.34002 3.000058,0.75909 5.600885,2.72367 7.247625,5.47461 0.68755,1.14857 1.23841,2.62865 1.52498,4.09639 l 0.13539,0.69194 0.0341,21.050905 c 0.0334,20.53912 0.0373,21.05608 0.15401,21.24884 0.0658,0.10866 0.22111,0.25709 0.3457,0.32969 0.22511,0.1312 0.2558,0.13221 4.78939,0.11731 l 4.5625,-0.015 0.19687,-0.14056 c 0.10825,-0.0772 0.24345,-0.23791 0.30025,-0.3576 0.0953,-0.20072 0.10158,-1.95546 0.0827,-22.60999 l -0.0207,-22.392435 -0.13126,-0.69246 c -0.4604,-2.42855 -1.33371,-4.52622 -2.79206,-6.70709 -3.36958,-5.03897 -8.91691,-8.57054 -15.115386,-9.62215 -1.265475,-0.2147 -2.801461,-0.33324 -4.165626,-0.34003 z m 41.847065,9.43198 c 5.03425,0 5.50719,0.009 5.87613,0.11111 1.29259,0.35713 2.30359,1.34339 2.75539,2.68924 0.11179,0.33305 0.11735,1.1583 0.14933,21.83794 l 0.0331,21.491705 0.13539,0.56638 c 0.16989,0.71172 0.47443,1.57613 0.74414,2.11201 0.97055,1.92818 2.75111,3.48715 4.73615,4.14704 1.24312,0.41321 1.04442,0.39964 6.13296,0.42634 l 4.64056,0.0243 0.0165,-25.06669 0.016,-25.066695 0.17105,-0.50333 c 0.43016,-1.26774 1.32535,-2.18524 2.53524,-2.59777 l 0.50334,-0.17157 h 5.56969 c 5.22899,0 5.59239,0.007 5.94691,0.11576 1.39414,0.42747 2.45401,1.53314 2.76727,2.88664 0.0876,0.37778 0.0958,2.70148 0.0796,22.21518 -0.0172,20.686015 -0.0238,21.817305 -0.13075,22.265315 -0.32856,1.377 -0.95549,2.83299 -1.70945,3.96875 -1.84417,2.7781 -4.58306,4.77656 -7.46157,5.44411 -0.37568,0.0871 -0.87574,0.11381 -2.55124,0.1359 l -2.08412,0.0274 -0.0341,2.3704 c -0.0287,2.0028 -0.0537,2.4834 -0.16227,3.09645 -0.7297,4.12142 -3.85866,6.7878 -8.86354,7.55303 -0.66591,0.10185 -1.23675,0.13734 -2.44224,0.15245 -0.86532,0.0105 -1.70095,0.008 -1.85671,-0.006 -3.73425,-0.33485 -7.11227,-1.27854 -10.54148,-2.94453 -1.48751,-0.72264 -2.28547,-1.17857 -3.6499,-2.08514 -5.50119,-3.65516 -9.00653,-8.68976 -9.90588,-14.22755 -0.262086,-1.61379 -0.265266,-1.90041 -0.245446,-25.323005 l 0.0191,-22.49889 0.168476,-0.46147 c 0.24072,-0.65903 0.52573,-1.10947 1.00407,-1.58698 0.46039,-0.45958 1.19992,-0.8737 1.81696,-1.01751 0.26744,-0.0624 1.59065,-0.0806 5.82133,-0.0806 z m -4.5098,3.67937 -0.24702,0.13849 c -0.16113,0.0906 -0.29183,0.23241 -0.37724,0.40876 l -0.13073,0.26975 0.0263,22.26427 c 0.0289,24.649375 -0.007,22.595255 0.42479,24.316345 1.16062,4.62268 4.68508,9.17242 9.32137,12.03286 6.20504,3.74061 9.78782,3.96164 14.68644,3.34191 3.16508,-0.39041 5.13692,-1.76216 5.82962,-4.05557 0.13475,-0.44618 0.14317,-0.59518 0.16537,-2.90886 l 0.0233,-2.43861 h -4.57439 c -5.01435,0 -5.2194,-0.012 -6.6213,-0.38189 -4.74578,-1.25207 -8.24862,-5.44944 -8.75916,-10.49652 -0.0445,-0.43974 -0.0656,-7.33794 -0.0656,-21.209035 0,-19.88762 -0.004,-20.56479 -0.11679,-20.77496 -0.0641,-0.11949 -0.19365,-0.2749 -0.28784,-0.3452 -0.16799,-0.12544 -0.25866,-0.12861 -4.73408,-0.14521 z m 38.57543,0.002 c -4.90308,0 -4.68593,-0.0145 -5.02246,0.34572 l -0.15708,0.16795 -0.016,24.602105 -0.016,24.6016 1.58956,-5.2e-4 c 0.87411,-3e-4 1.77335,-0.0297 1.99832,-0.0651 1.43055,-0.22487 2.86488,-1.03758 4.2163,-2.389 1.15027,-1.15029 1.95884,-2.42785 2.37297,-3.74964 l 0.17571,-0.56121 0.016,-21.113945 c 0.0151,-20.01659 0.0106,-21.12545 -0.0941,-21.33307 -0.0607,-0.12046 -0.20691,-0.28313 -0.32454,-0.36173 l -0.21394,-0.14315 z m -87.715599,0.0522 -1.872218,0.0269 c -2.049172,0.0299 -2.214589,0.0538 -3.169841,0.45578 -2.562516,1.07819 -4.953873,3.96893 -5.339212,6.45439 -0.05416,0.34914 -0.06784,5.79286 -0.05374,21.341845 l 0.0191,20.87366 0.130228,0.17725 c 0.0717,0.0977 0.269848,0.1787 0.346234,0.28784 0.128534,0.18363 0.556021,0.11058 4.721674,0.11058 h 4.506199 l 0.208253,-0.14159 c 0.114432,-0.0779 0.267097,-0.22166 0.339513,-0.31936 l 0.131763,-0.17777 0.01603,-24.54475 z"
       style="fill:#8a05be;fill-opacity:1;stroke-width:0.062933"
       id="path1669" />
  </g>
</svg>
