<?xml version="1.0" encoding="UTF-8" standalone="no"?>
<svg
   xmlns:dc="http://purl.org/dc/elements/1.1/"
   xmlns:cc="http://creativecommons.org/ns#"
   xmlns:rdf="http://www.w3.org/1999/02/22-rdf-syntax-ns#"
   xmlns:svg="http://www.w3.org/2000/svg"
   xmlns="http://www.w3.org/2000/svg"
   xmlns:sodipodi="http://sodipodi.sourceforge.net/DTD/sodipodi-0.dtd"
   xmlns:inkscape="http://www.inkscape.org/namespaces/inkscape"
   sodipodi:docname="revolut.svg"
   inkscape:version="1.0 (4035a4fb49, 2020-05-01)"
   id="svg8"
   version="1.1"
   viewBox="0 0 200 200"
   height="200mm"
   width="200mm">
  <defs
     id="defs2" />
  <sodipodi:namedview
     inkscape:window-maximized="1"
     inkscape:window-y="-8"
     inkscape:window-x="-8"
     inkscape:window-height="1017"
     inkscape:window-width="1920"
     showgrid="false"
     inkscape:document-rotation="0"
     inkscape:current-layer="layer1"
     inkscape:document-units="mm"
     inkscape:cy="363.77225"
     inkscape:cx="423.42001"
     inkscape:zoom="1.4142136"
     inkscape:pageshadow="2"
     inkscape:pageopacity="0.0"
     borderopacity="1.0"
     bordercolor="#666666"
     pagecolor="#ffffff"
     id="base" />
  <metadata
     id="metadata5">
    <rdf:RDF>
      <cc:Work
         rdf:about="">
        <dc:format>image/svg+xml</dc:format>
        <dc:type
           rdf:resource="http://purl.org/dc/dcmitype/StillImage" />
        <dc:title />
      </cc:Work>
    </rdf:RDF>
  </metadata>
  <g
     id="layer1"
     inkscape:groupmode="layer"
     inkscape:label="Layer 1">
    <circle
       r="100"
       cy="100"
       cx="100"
       id="path833"
       style="fill:#f5f5f5;fill-opacity:1;stroke-width:0.854044" />
    <path
       sodipodi:nodetypes="cssssccscccccccsccccsssssccccccccsccsssssscccsccsscccccc"
       id="path158"
       d="m 42.762942,157.18577 c -2.486901,-5.07401 -2.997682,-9.86763 -1.715448,-16.09939 1.6811,-8.17027 5.388497,-29.60933 7.693565,-44.490185 0.495728,-3.200268 1.122399,-7.204886 1.392604,-8.899148 0.776914,-4.871482 2.505844,-16.683551 3.10332,-21.201889 0.304463,-2.302478 0.649037,-8.362662 0.779543,-13.710162 0.132014,-8.230235 -0.243449,-12.468574 6.320635,-16.957996 2.290629,-1.50101 5.927249,-2.486269 12.018711,-3.256182 22.043795,-2.786177 43.456968,-2.365829 55.799458,1.095361 19.30167,5.860314 29.69709,20.2463 31.34032,37.857733 1.43256,15.807867 -9.01791,32.176448 -18.776,40.327468 l 1.68119,3.97572 c 2.64872,7.05822 6.11535,13.97714 9.37466,20.81524 5.93135,12.41109 6.32488,13.58858 5.68976,17.02431 -4.39496,14.97724 -28.76072,17.40626 -41.6375,14.89953 -6.31311,-1.40781 -11.09766,-4.0018 -15.45154,-8.3772 -2.29051,-2.30183 -3.189024,-3.01071 -3.334749,-2.63094 -8.522224,8.47336 -16.424812,10.67317 -27.586327,11.43358 -10.04002,0.99325 -21.87281,-3.20223 -26.692202,-11.80585 z m 27.640268,-2.06454 c 4.792321,-0.5933 7.929535,-1.21769 10.860452,-2.16152 2.35032,-0.75687 4.485534,-1.89454 4.372871,-2.32992 -0.04219,-0.16303 -0.304967,-0.91252 -0.583954,-1.66552 -1.066746,-2.87918 -0.578586,-9.61726 1.848914,-25.52063 0.758344,-4.96818 1.378806,-9.15219 1.378806,-9.2978 0,-0.14562 2.369407,-0.26476 5.265347,-0.26476 4.717628,0 5.284122,0.0624 5.445945,0.59898 1.612199,5.4955 3.853959,11.22801 5.694969,16.51477 2.10227,5.63136 3.76217,12.25749 6.13401,16.98946 4.29235,7.7715 7.54449,7.88684 15.49076,7.14225 7.97572,-0.77185 14.52823,-2.26065 16.99368,-3.86114 -3.81951,-8.15371 -10.53346,-21.79585 -14.15361,-31.5656 -1.96734,-5.38854 -4.5491,-13.53346 -4.31455,-13.61163 4.99139,-2.53496 8.44251,-5.26484 11.9986,-9.124664 5.81373,-5.939385 8.21877,-10.867151 8.90904,-18.254029 0.52936,-5.664894 -0.37708,-12.384401 -2.23969,-16.602887 -2.80832,-5.947631 -7.15851,-10.123169 -12.34035,-12.684704 -6.36839,-3.181527 -13.9859,-4.496562 -28.3374,-4.891982 -9.278875,-0.255655 -22.500912,0.559554 -31.66044,1.952039 -3.776929,0.57419 -3.422302,-0.142628 -3.426047,6.925182 -0.0035,6.638965 -0.407974,11.104825 -2.067097,22.823792 -2.714362,19.172462 -8.162804,52.960343 -8.775747,54.421723 -0.118432,0.28238 -0.189952,0.63172 -0.158929,0.77632 0.03101,0.1446 -0.42349,2.83531 -1.010029,5.97934 -1.180201,7.5335 -1.561912,14.17602 3.802655,16.86239 3.661062,1.63844 7.4445,1.27172 10.871853,0.8506 z M 92.217582,89.408423 c 0.756311,-4.814067 3.606353,-23.842069 4.165415,-27.809846 l 0.20495,-1.454668 3.975203,0.005 c 5.65513,0.0073 9.12893,0.943737 12.28831,3.312927 4.87317,4.195733 4.65765,12.962161 3.20621,18.73584 C 112.69272,93.346993 106.4884,97.70803 95.06955,97.7941 h -4.144097 c 0.433146,-2.927422 0.903503,-5.910896 1.292129,-8.385677 z"
       style="fill:#333333;fill-opacity:1;stroke-width:0.342275" />
  </g>
</svg>
