<?xml version="1.0" encoding="UTF-8" standalone="no"?>
<svg
   xmlns:dc="http://purl.org/dc/elements/1.1/"
   xmlns:cc="http://creativecommons.org/ns#"
   xmlns:rdf="http://www.w3.org/1999/02/22-rdf-syntax-ns#"
   xmlns:svg="http://www.w3.org/2000/svg"
   xmlns="http://www.w3.org/2000/svg"
   xmlns:sodipodi="http://sodipodi.sourceforge.net/DTD/sodipodi-0.dtd"
   xmlns:inkscape="http://www.inkscape.org/namespaces/inkscape"
   width="200mm"
   height="200mm"
   viewBox="0 0 200 200"
   version="1.1"
   id="svg8"
   inkscape:version="1.0 (6e3e5246a0, 2020-05-07)"
   sodipodi:docname="sicoob.svg">
  <defs
     id="defs2">
    <clipPath
       clipPathUnits="userSpaceOnUse"
       id="clipPath34">
      <path
         d="M -39.360001,-7.04 V 39.200001 H 98.879997 V -7.04 Z"
         id="path32"
         inkscape:connector-curvature="0"
         style="clip-rule:evenodd" />
    </clipPath>
    <clipPath
       clipPathUnits="userSpaceOnUse"
       id="clipPath44">
      <path
         d="M 91.040001,82.879997 H 229.28 V 129.11999 H 91.040001 Z"
         id="path42"
         inkscape:connector-curvature="0"
         style="clip-rule:evenodd" />
    </clipPath>
  </defs>
  <sodipodi:namedview
     id="base"
     pagecolor="#ffffff"
     bordercolor="#666666"
     borderopacity="1.0"
     inkscape:pageopacity="0.0"
     inkscape:pageshadow="2"
     inkscape:zoom="0.35"
     inkscape:cx="-303.58188"
     inkscape:cy="658.78672"
     inkscape:document-units="mm"
     inkscape:current-layer="layer1"
     inkscape:document-rotation="0"
     showgrid="false"
     inkscape:window-width="1920"
     inkscape:window-height="1024"
     inkscape:window-x="0"
     inkscape:window-y="28"
     inkscape:window-maximized="1" />
  <metadata
     id="metadata5">
    <rdf:RDF>
      <cc:Work
         rdf:about="">
        <dc:format>image/svg+xml</dc:format>
        <dc:type
           rdf:resource="http://purl.org/dc/dcmitype/StillImage" />
        <dc:title></dc:title>
      </cc:Work>
    </rdf:RDF>
  </metadata>
  <g
     inkscape:label="Layer 1"
     inkscape:groupmode="layer"
     id="layer1">
    <circle
       style="fill:#f5f5f5;fill-opacity:1;stroke-width:0.854044"
       id="path833"
       cx="100.1"
       cy="100"
       r="100" />
    <g
       transform="matrix(0.92195561,0,0,0.92195561,171.45936,79.182853)"
       id="g895">
      <g
         transform="translate(0,12.07749)"
         id="g1239">
        <path
           id="path4"
           d="m -145.4,-45.9 c -1.2,0.1 -2.4,0.4 -3.5,1.1 -2.6,1.5 -4.1,4.3 -4.1,7.1 0,1.2 0.3,2.5 0.9,3.7 l 40.3,70.1 13.1,-22.6 21.3,-36.8 -13.1,-22.6 z"
           class="st0"
           style="fill:#6ebb49;fill-opacity:1" />
        <path
           id="path10"
           d="m -90.4,-45.9 34.3,59.3 h 24.1 1.9 l 27.5,-47.6 c 0.5,-1.1 0.8,-2.2 0.8,-3.5 0,-4.4 -3.4,-7.9 -7.7,-8.2 z"
           class="st1"
           style="fill:#00ae9c;fill-opacity:1" />
        <path
           id="path12"
           d="m -31.9,13.4 h -66.7 l -13.1,22.6 27.6,47.6 c 0.6,1 1.6,1.8 2.6,2.5 1.3,0.7 2.7,1.1 4.1,1.1 2.7,0 5.3,-1.4 6.9,-3.7 L -30,13.4 Z"
           class="st2"
           style="fill:#b8d335;fill-opacity:1" />
      </g>
    </g>
  </g>
</svg>
